<mxfile host="Electron" modified="2023-11-30T01:14:58.365Z" agent="Mozilla/5.0 (Macintosh; Intel Mac OS X 10_15_7) AppleWebKit/537.36 (KHTML, like Gecko) draw.io/22.1.2 Chrome/114.0.5735.289 Electron/25.9.4 Safari/537.36" etag="MyQ4f_UjuvLIxns3FWGJ" version="22.1.2" type="device">
  <diagram id="prtHgNgQTEPvFCAcTncT" name="Page-1">
    <mxGraphModel dx="221" dy="153" grid="1" gridSize="10" guides="1" tooltips="1" connect="1" arrows="1" fold="1" page="1" pageScale="1" pageWidth="1654" pageHeight="1169" math="0" shadow="0">
      <root>
        <mxCell id="0" />
        <mxCell id="1" parent="0" />
        <mxCell id="LJ8jeTjM3cDZCOLipH15-85" value="" style="shape=process;whiteSpace=wrap;html=1;backgroundOutline=1;size=0.08000000000000092;" parent="1" vertex="1">
          <mxGeometry x="1630" y="420" width="230" height="120" as="geometry" />
        </mxCell>
        <mxCell id="LJ8jeTjM3cDZCOLipH15-86" value="&lt;font color=&quot;#b266ff&quot;&gt;DM_wdata&lt;/font&gt;" style="rounded=0;whiteSpace=wrap;html=1;" parent="1" vertex="1">
          <mxGeometry x="1670" y="510" width="70" height="20" as="geometry" />
        </mxCell>
        <mxCell id="LJ8jeTjM3cDZCOLipH15-66" value="&lt;font color=&quot;#ff00ff&quot; style=&quot;font-size: 14px;&quot;&gt;MUX_&lt;br&gt;OP_E&lt;/font&gt;" style="shape=trapezoid;perimeter=trapezoidPerimeter;whiteSpace=wrap;html=1;fixedSize=1;direction=south;size=10;strokeColor=#FF8000;" parent="1" vertex="1">
          <mxGeometry x="1380" y="420" width="50" height="60" as="geometry" />
        </mxCell>
        <mxCell id="LJ8jeTjM3cDZCOLipH15-41" value="&lt;font color=&quot;#ff8000&quot; style=&quot;font-size: 16px;&quot;&gt;MULT&lt;/font&gt;" style="shape=or;whiteSpace=wrap;html=1;strokeColor=#FF8000;" parent="1" vertex="1">
          <mxGeometry x="1180" y="730" width="150" height="80" as="geometry" />
        </mxCell>
        <mxCell id="LJ8jeTjM3cDZCOLipH15-37" value="&lt;font color=&quot;#ff00ff&quot; style=&quot;font-size: 14px;&quot;&gt;MUX_&lt;br&gt;ALU_B&lt;br&gt;_E&lt;/font&gt;" style="shape=trapezoid;perimeter=trapezoidPerimeter;whiteSpace=wrap;html=1;fixedSize=1;direction=south;size=10;" parent="1" vertex="1">
          <mxGeometry x="1200" y="420" width="50" height="60" as="geometry" />
        </mxCell>
        <mxCell id="LJ8jeTjM3cDZCOLipH15-33" value="&lt;font color=&quot;#b266ff&quot;&gt;DM_rdata&lt;br&gt;&lt;/font&gt;" style="rounded=0;whiteSpace=wrap;html=1;" parent="1" vertex="1">
          <mxGeometry x="1754" y="450" width="70" height="30" as="geometry" />
        </mxCell>
        <mxCell id="LJ8jeTjM3cDZCOLipH15-30" value="&lt;font color=&quot;#b266ff&quot;&gt;DM_byteen&lt;/font&gt;" style="rounded=0;whiteSpace=wrap;html=1;" parent="1" vertex="1">
          <mxGeometry x="1670" y="480" width="70" height="20" as="geometry" />
        </mxCell>
        <mxCell id="LJ8jeTjM3cDZCOLipH15-5" value="" style="rounded=0;whiteSpace=wrap;html=1;strokeColor=#FF3333;" parent="1" vertex="1">
          <mxGeometry x="1700" y="880" width="80" height="60" as="geometry" />
        </mxCell>
        <mxCell id="y1xQ33muBoSTJrlKvMSJ-46" value="&lt;font color=&quot;#b266ff&quot; style=&quot;font-size: 16px;&quot;&gt;CTRL_Decoder&lt;/font&gt;" style="shape=trapezoid;perimeter=trapezoidPerimeter;whiteSpace=wrap;html=1;fixedSize=1;size=50;" parent="1" vertex="1">
          <mxGeometry x="440" y="70" width="420" height="120" as="geometry" />
        </mxCell>
        <mxCell id="ER48WJ5dUgR68-UzpMZ_-28" value="&lt;font style=&quot;font-size: 16px;&quot;&gt;+8&lt;/font&gt;" style="rounded=0;whiteSpace=wrap;html=1;" parent="1" vertex="1">
          <mxGeometry x="500" y="690" width="110" height="40" as="geometry" />
        </mxCell>
        <mxCell id="ER48WJ5dUgR68-UzpMZ_-27" value="&lt;font color=&quot;#0066cc&quot; style=&quot;font-size: 14px;&quot;&gt;FMUX_&lt;br&gt;DM_D&lt;br&gt;_M&lt;/font&gt;" style="shape=trapezoid;perimeter=trapezoidPerimeter;whiteSpace=wrap;html=1;fixedSize=1;rounded=0;strokeColor=default;align=center;verticalAlign=middle;fontFamily=Helvetica;fontSize=12;fontColor=default;fillColor=default;direction=south;" parent="1" vertex="1">
          <mxGeometry x="1560" y="480" width="50" height="80" as="geometry" />
        </mxCell>
        <mxCell id="ER48WJ5dUgR68-UzpMZ_-25" value="&lt;font color=&quot;#0066cc&quot; style=&quot;font-size: 14px;&quot;&gt;FMUX_V1_D&lt;/font&gt;" style="shape=trapezoid;perimeter=trapezoidPerimeter;whiteSpace=wrap;html=1;fixedSize=1;rounded=0;strokeColor=default;align=center;verticalAlign=middle;fontFamily=Helvetica;fontSize=12;fontColor=default;fillColor=default;direction=south;" parent="1" vertex="1">
          <mxGeometry x="700" y="370" width="90" height="70" as="geometry" />
        </mxCell>
        <mxCell id="ER48WJ5dUgR68-UzpMZ_-18" value="&lt;font color=&quot;#b266ff&quot; style=&quot;font-size: 16px;&quot;&gt;&amp;nbsp; &amp;nbsp; ALU&lt;/font&gt;" style="shape=step;perimeter=stepPerimeter;whiteSpace=wrap;html=1;fixedSize=1;size=20;" parent="1" vertex="1">
          <mxGeometry x="1250" y="400" width="90" height="100" as="geometry" />
        </mxCell>
        <mxCell id="5TQuwyumRw6ZRlAPxjWT-94" value="" style="endArrow=none;html=1;rounded=0;jumpSize=6;strokeWidth=5;strokeColor=#0050ef;" parent="1" edge="1">
          <mxGeometry width="50" height="50" relative="1" as="geometry">
            <mxPoint x="1880" y="740" as="sourcePoint" />
            <mxPoint x="1880" y="200" as="targetPoint" />
          </mxGeometry>
        </mxCell>
        <mxCell id="5TQuwyumRw6ZRlAPxjWT-93" value="" style="endArrow=none;html=1;rounded=0;jumpSize=6;strokeWidth=5;strokeColor=#0050ef;" parent="1" edge="1">
          <mxGeometry width="50" height="50" relative="1" as="geometry">
            <mxPoint x="1460" y="740" as="sourcePoint" />
            <mxPoint x="1460" y="200" as="targetPoint" />
          </mxGeometry>
        </mxCell>
        <mxCell id="5TQuwyumRw6ZRlAPxjWT-92" value="" style="endArrow=none;html=1;rounded=0;jumpSize=6;strokeWidth=5;strokeColor=#0050ef;" parent="1" edge="1">
          <mxGeometry width="50" height="50" relative="1" as="geometry">
            <mxPoint x="950" y="740" as="sourcePoint" />
            <mxPoint x="950" y="200" as="targetPoint" />
          </mxGeometry>
        </mxCell>
        <mxCell id="y1xQ33muBoSTJrlKvMSJ-61" style="edgeStyle=orthogonalEdgeStyle;rounded=0;orthogonalLoop=1;jettySize=auto;html=1;fillColor=#1ba1e2;strokeColor=#FF00FF;exitX=1;exitY=0.5;exitDx=0;exitDy=0;entryX=0;entryY=0.5;entryDx=0;entryDy=0;endSize=6;strokeWidth=2;" parent="1" source="y1xQ33muBoSTJrlKvMSJ-53" target="5TQuwyumRw6ZRlAPxjWT-150" edge="1">
          <mxGeometry relative="1" as="geometry">
            <mxPoint x="464.9999999999999" y="140.00000000000006" as="targetPoint" />
            <Array as="points">
              <mxPoint x="420" y="400" />
              <mxPoint x="420" y="150" />
            </Array>
            <mxPoint x="420" y="420" as="sourcePoint" />
          </mxGeometry>
        </mxCell>
        <mxCell id="5TQuwyumRw6ZRlAPxjWT-97" value="" style="endArrow=none;html=1;rounded=0;jumpSize=6;strokeWidth=5;strokeColor=#0050ef;" parent="1" edge="1">
          <mxGeometry width="50" height="50" relative="1" as="geometry">
            <mxPoint x="260" y="740" as="sourcePoint" />
            <mxPoint x="260" y="200" as="targetPoint" />
          </mxGeometry>
        </mxCell>
        <mxCell id="y1xQ33muBoSTJrlKvMSJ-3" value="" style="rounded=0;whiteSpace=wrap;html=1;" parent="1" vertex="1">
          <mxGeometry x="40" y="410" width="140" height="220" as="geometry" />
        </mxCell>
        <mxCell id="y1xQ33muBoSTJrlKvMSJ-4" value="" style="rounded=0;whiteSpace=wrap;html=1;" parent="1" vertex="1">
          <mxGeometry x="70" y="420" width="40" height="60" as="geometry" />
        </mxCell>
        <mxCell id="y1xQ33muBoSTJrlKvMSJ-8" value="" style="rounded=0;whiteSpace=wrap;html=1;strokeColor=#FF3333;" parent="1" vertex="1">
          <mxGeometry x="140" y="285" width="40" height="60" as="geometry" />
        </mxCell>
        <mxCell id="y1xQ33muBoSTJrlKvMSJ-9" value="&lt;font style=&quot;font-size: 10px;&quot;&gt;A&lt;/font&gt;" style="text;html=1;strokeColor=none;fillColor=none;align=center;verticalAlign=middle;whiteSpace=wrap;rounded=0;fontColor=#FF3333;" parent="1" vertex="1">
          <mxGeometry x="140" y="305" width="10" height="20" as="geometry" />
        </mxCell>
        <mxCell id="y1xQ33muBoSTJrlKvMSJ-18" style="edgeStyle=orthogonalEdgeStyle;rounded=0;orthogonalLoop=1;jettySize=auto;html=1;exitX=1;exitY=0.5;exitDx=0;exitDy=0;strokeColor=#FF3333;strokeWidth=2;sourcePerimeterSpacing=0;endArrow=diamond;endFill=1;" parent="1" source="y1xQ33muBoSTJrlKvMSJ-11" edge="1">
          <mxGeometry relative="1" as="geometry">
            <mxPoint x="260" y="450" as="targetPoint" />
            <mxPoint x="150" y="315" as="sourcePoint" />
            <Array as="points">
              <mxPoint x="190" y="315" />
              <mxPoint x="190" y="450" />
            </Array>
          </mxGeometry>
        </mxCell>
        <mxCell id="y1xQ33muBoSTJrlKvMSJ-11" value="&lt;font style=&quot;font-size: 10px;&quot;&gt;D&lt;/font&gt;" style="text;html=1;strokeColor=none;fillColor=none;align=center;verticalAlign=middle;whiteSpace=wrap;rounded=0;fontColor=#FF3333;" parent="1" vertex="1">
          <mxGeometry x="170" y="305" width="10" height="20" as="geometry" />
        </mxCell>
        <mxCell id="y1xQ33muBoSTJrlKvMSJ-12" value="&lt;font style=&quot;font-size: 10px;&quot;&gt;D&lt;/font&gt;" style="text;html=1;strokeColor=none;fillColor=none;align=center;verticalAlign=middle;whiteSpace=wrap;rounded=0;" parent="1" vertex="1">
          <mxGeometry x="70" y="440" width="10" height="20" as="geometry" />
        </mxCell>
        <mxCell id="y1xQ33muBoSTJrlKvMSJ-19" style="edgeStyle=orthogonalEdgeStyle;rounded=0;orthogonalLoop=1;jettySize=auto;html=1;entryX=0;entryY=0.5;entryDx=0;entryDy=0;strokeColor=#FF3333;strokeWidth=2;sourcePerimeterSpacing=0;endArrow=diamond;endFill=1;" parent="1" source="y1xQ33muBoSTJrlKvMSJ-13" target="y1xQ33muBoSTJrlKvMSJ-9" edge="1">
          <mxGeometry relative="1" as="geometry">
            <mxPoint x="130" y="390" as="targetPoint" />
            <Array as="points">
              <mxPoint x="120" y="450" />
              <mxPoint x="120" y="315" />
            </Array>
          </mxGeometry>
        </mxCell>
        <mxCell id="y1xQ33muBoSTJrlKvMSJ-23" style="edgeStyle=orthogonalEdgeStyle;rounded=0;orthogonalLoop=1;jettySize=auto;html=1;exitX=1;exitY=0.5;exitDx=0;exitDy=0;entryX=0.5;entryY=0;entryDx=0;entryDy=0;" parent="1" source="y1xQ33muBoSTJrlKvMSJ-13" target="y1xQ33muBoSTJrlKvMSJ-24" edge="1">
          <mxGeometry relative="1" as="geometry">
            <mxPoint x="120" y="510" as="targetPoint" />
            <Array as="points">
              <mxPoint x="120" y="450" />
            </Array>
          </mxGeometry>
        </mxCell>
        <mxCell id="y1xQ33muBoSTJrlKvMSJ-13" value="&lt;font style=&quot;font-size: 10px;&quot;&gt;Q&lt;/font&gt;" style="text;html=1;strokeColor=none;fillColor=none;align=center;verticalAlign=middle;whiteSpace=wrap;rounded=0;" parent="1" vertex="1">
          <mxGeometry x="100" y="440" width="10" height="20" as="geometry" />
        </mxCell>
        <mxCell id="y1xQ33muBoSTJrlKvMSJ-15" value="" style="triangle;whiteSpace=wrap;html=1;direction=north;fillColor=#6a00ff;fontColor=#ffffff;strokeColor=#3700CC;" parent="1" vertex="1">
          <mxGeometry x="90" y="470" width="10" height="10" as="geometry" />
        </mxCell>
        <mxCell id="y1xQ33muBoSTJrlKvMSJ-21" value="" style="rounded=0;whiteSpace=wrap;html=1;" parent="1" vertex="1">
          <mxGeometry x="70" y="510" width="100" height="110" as="geometry" />
        </mxCell>
        <mxCell id="y1xQ33muBoSTJrlKvMSJ-24" value="&lt;font style=&quot;font-size: 10px;&quot;&gt;PC&lt;/font&gt;" style="text;html=1;strokeColor=none;fillColor=none;align=center;verticalAlign=middle;whiteSpace=wrap;rounded=0;" parent="1" vertex="1">
          <mxGeometry x="110" y="510" width="20" height="20" as="geometry" />
        </mxCell>
        <mxCell id="y1xQ33muBoSTJrlKvMSJ-25" value="&lt;font style=&quot;font-size: 10px;&quot;&gt;NPC&lt;br&gt;&lt;/font&gt;" style="text;html=1;strokeColor=none;fillColor=none;align=center;verticalAlign=middle;whiteSpace=wrap;rounded=0;" parent="1" vertex="1">
          <mxGeometry x="70" y="555" width="30" height="20" as="geometry" />
        </mxCell>
        <mxCell id="y1xQ33muBoSTJrlKvMSJ-27" value="&lt;font style=&quot;font-size: 12px;&quot; color=&quot;#b266ff&quot;&gt;IFU_NPC&lt;/font&gt;" style="text;html=1;strokeColor=none;fillColor=none;align=center;verticalAlign=middle;whiteSpace=wrap;rounded=0;" parent="1" vertex="1">
          <mxGeometry x="70" y="530" width="60" height="20" as="geometry" />
        </mxCell>
        <mxCell id="y1xQ33muBoSTJrlKvMSJ-28" value="&lt;font style=&quot;font-size: 10px;&quot;&gt;BranchComp&lt;/font&gt;" style="text;html=1;strokeColor=none;fillColor=none;align=center;verticalAlign=middle;whiteSpace=wrap;rounded=0;" parent="1" vertex="1">
          <mxGeometry x="70" y="600" width="60" height="20" as="geometry" />
        </mxCell>
        <mxCell id="y1xQ33muBoSTJrlKvMSJ-29" value="" style="endArrow=classic;html=1;rounded=0;exitX=1;exitY=0.5;exitDx=0;exitDy=0;" parent="1" source="y1xQ33muBoSTJrlKvMSJ-13" edge="1">
          <mxGeometry width="50" height="50" relative="1" as="geometry">
            <mxPoint x="105" y="460" as="sourcePoint" />
            <mxPoint x="260" y="490" as="targetPoint" />
            <Array as="points">
              <mxPoint x="120" y="450" />
              <mxPoint x="120" y="490" />
            </Array>
          </mxGeometry>
        </mxCell>
        <mxCell id="y1xQ33muBoSTJrlKvMSJ-31" value="&lt;font style=&quot;font-size: 10px;&quot;&gt;offset&lt;br&gt;&lt;/font&gt;" style="text;html=1;strokeColor=none;fillColor=none;align=center;verticalAlign=middle;whiteSpace=wrap;rounded=0;" parent="1" vertex="1">
          <mxGeometry x="130" y="530" width="40" height="20" as="geometry" />
        </mxCell>
        <mxCell id="y1xQ33muBoSTJrlKvMSJ-32" value="&lt;font style=&quot;font-size: 10px;&quot;&gt;instr_index&lt;br&gt;&lt;/font&gt;" style="text;html=1;strokeColor=none;fillColor=none;align=center;verticalAlign=middle;whiteSpace=wrap;rounded=0;" parent="1" vertex="1">
          <mxGeometry x="110" y="550" width="60" height="20" as="geometry" />
        </mxCell>
        <mxCell id="y1xQ33muBoSTJrlKvMSJ-33" value="&lt;font style=&quot;font-size: 10px;&quot;&gt;instr_register&lt;br&gt;&lt;/font&gt;" style="text;html=1;strokeColor=none;fillColor=none;align=center;verticalAlign=middle;whiteSpace=wrap;rounded=0;" parent="1" vertex="1">
          <mxGeometry x="100" y="570" width="70" height="20" as="geometry" />
        </mxCell>
        <mxCell id="y1xQ33muBoSTJrlKvMSJ-34" value="&lt;font style=&quot;font-size: 16px;&quot; color=&quot;#b266ff&quot;&gt;IFU&lt;/font&gt;" style="text;html=1;strokeColor=none;fillColor=none;align=center;verticalAlign=middle;whiteSpace=wrap;rounded=0;" parent="1" vertex="1">
          <mxGeometry x="70" y="490" width="30" height="20" as="geometry" />
        </mxCell>
        <mxCell id="y1xQ33muBoSTJrlKvMSJ-35" value="&lt;font color=&quot;#b266ff&quot;&gt;IFU_&lt;br&gt;PC&lt;/font&gt;" style="text;html=1;strokeColor=none;fillColor=none;align=center;verticalAlign=middle;whiteSpace=wrap;rounded=0;" parent="1" vertex="1">
          <mxGeometry x="80" y="420" width="30" height="30" as="geometry" />
        </mxCell>
        <mxCell id="y1xQ33muBoSTJrlKvMSJ-36" value="&lt;font style=&quot;font-size: 12px;&quot;&gt;IM&lt;/font&gt;" style="text;html=1;strokeColor=none;fillColor=none;align=center;verticalAlign=middle;whiteSpace=wrap;rounded=0;fontColor=#FF3333;" parent="1" vertex="1">
          <mxGeometry x="150" y="285" width="20" height="30" as="geometry" />
        </mxCell>
        <mxCell id="y1xQ33muBoSTJrlKvMSJ-39" value="InstrAddr" style="text;html=1;strokeColor=none;fillColor=none;align=center;verticalAlign=middle;whiteSpace=wrap;rounded=0;" parent="1" vertex="1">
          <mxGeometry x="190" y="470" width="50" height="20" as="geometry" />
        </mxCell>
        <mxCell id="y1xQ33muBoSTJrlKvMSJ-40" value="&lt;font style=&quot;font-size: 10px;&quot;&gt;NPCSel&lt;/font&gt;" style="text;html=1;strokeColor=none;fillColor=none;align=center;verticalAlign=middle;whiteSpace=wrap;rounded=0;" parent="1" vertex="1">
          <mxGeometry x="130" y="600" width="40" height="20" as="geometry" />
        </mxCell>
        <mxCell id="y1xQ33muBoSTJrlKvMSJ-43" value="&lt;font style=&quot;font-size: 16px;&quot; color=&quot;#b266ff&quot;&gt;FR_D&lt;br&gt;&lt;/font&gt;" style="text;html=1;strokeColor=none;fillColor=none;align=center;verticalAlign=middle;whiteSpace=wrap;rounded=0;" parent="1" vertex="1">
          <mxGeometry x="220" y="180" width="40" height="20" as="geometry" />
        </mxCell>
        <mxCell id="y1xQ33muBoSTJrlKvMSJ-44" value="" style="triangle;whiteSpace=wrap;html=1;direction=east;fillColor=#6a00ff;fontColor=#ffffff;strokeColor=#3700CC;" parent="1" vertex="1">
          <mxGeometry x="260" y="730" width="10" height="10" as="geometry" />
        </mxCell>
        <mxCell id="y1xQ33muBoSTJrlKvMSJ-45" value="&lt;font color=&quot;#b266ff&quot; style=&quot;font-size: 16px;&quot;&gt;GRF&lt;br&gt;_R&lt;/font&gt;" style="rounded=0;whiteSpace=wrap;html=1;" parent="1" vertex="1">
          <mxGeometry x="550" y="360" width="60" height="140" as="geometry" />
        </mxCell>
        <mxCell id="y1xQ33muBoSTJrlKvMSJ-47" value="" style="shape=trapezoid;perimeter=trapezoidPerimeter;whiteSpace=wrap;html=1;fixedSize=1;direction=north;" parent="1" vertex="1">
          <mxGeometry x="300" y="330" width="60" height="240" as="geometry" />
        </mxCell>
        <mxCell id="y1xQ33muBoSTJrlKvMSJ-60" style="edgeStyle=orthogonalEdgeStyle;rounded=0;orthogonalLoop=1;jettySize=auto;html=1;fillColor=#1ba1e2;strokeColor=#FF00FF;exitX=1;exitY=0.5;exitDx=0;exitDy=0;entryX=0;entryY=0.5;entryDx=0;entryDy=0;strokeWidth=2;" parent="1" source="y1xQ33muBoSTJrlKvMSJ-51" target="5TQuwyumRw6ZRlAPxjWT-104" edge="1">
          <mxGeometry relative="1" as="geometry">
            <mxPoint x="460" y="110" as="targetPoint" />
            <Array as="points">
              <mxPoint x="380" y="360" />
              <mxPoint x="380" y="110" />
            </Array>
            <mxPoint x="370" y="360" as="sourcePoint" />
          </mxGeometry>
        </mxCell>
        <mxCell id="y1xQ33muBoSTJrlKvMSJ-51" value="&lt;font style=&quot;font-size: 10px;&quot;&gt;opcode&lt;/font&gt;" style="text;html=1;strokeColor=none;fillColor=none;align=center;verticalAlign=middle;whiteSpace=wrap;rounded=0;" parent="1" vertex="1">
          <mxGeometry x="320" y="350" width="40" height="20" as="geometry" />
        </mxCell>
        <mxCell id="y1xQ33muBoSTJrlKvMSJ-74" style="edgeStyle=orthogonalEdgeStyle;rounded=0;orthogonalLoop=1;jettySize=auto;html=1;entryX=0;entryY=0.5;entryDx=0;entryDy=0;exitX=1;exitY=0.5;exitDx=0;exitDy=0;" parent="1" source="y1xQ33muBoSTJrlKvMSJ-52" target="y1xQ33muBoSTJrlKvMSJ-65" edge="1">
          <mxGeometry relative="1" as="geometry" />
        </mxCell>
        <mxCell id="y1xQ33muBoSTJrlKvMSJ-52" value="&lt;font style=&quot;font-size: 10px;&quot;&gt;rs&lt;/font&gt;" style="text;html=1;strokeColor=none;fillColor=none;align=center;verticalAlign=middle;whiteSpace=wrap;rounded=0;" parent="1" vertex="1">
          <mxGeometry x="340" y="370" width="20" height="20" as="geometry" />
        </mxCell>
        <mxCell id="y1xQ33muBoSTJrlKvMSJ-73" style="edgeStyle=orthogonalEdgeStyle;rounded=0;orthogonalLoop=1;jettySize=auto;html=1;exitX=1;exitY=0.5;exitDx=0;exitDy=0;entryX=0;entryY=0.5;entryDx=0;entryDy=0;" parent="1" source="y1xQ33muBoSTJrlKvMSJ-53" target="y1xQ33muBoSTJrlKvMSJ-66" edge="1">
          <mxGeometry relative="1" as="geometry">
            <Array as="points">
              <mxPoint x="470" y="400" />
              <mxPoint x="470" y="400" />
            </Array>
          </mxGeometry>
        </mxCell>
        <mxCell id="y1xQ33muBoSTJrlKvMSJ-81" style="edgeStyle=orthogonalEdgeStyle;rounded=0;orthogonalLoop=1;jettySize=auto;html=1;exitX=1;exitY=0.5;exitDx=0;exitDy=0;" parent="1" source="y1xQ33muBoSTJrlKvMSJ-53" edge="1">
          <mxGeometry relative="1" as="geometry">
            <mxPoint x="550" y="580" as="targetPoint" />
            <Array as="points">
              <mxPoint x="460" y="400" />
              <mxPoint x="460" y="580" />
            </Array>
          </mxGeometry>
        </mxCell>
        <mxCell id="y1xQ33muBoSTJrlKvMSJ-53" value="&lt;font style=&quot;font-size: 10px;&quot;&gt;rt&lt;/font&gt;" style="text;html=1;strokeColor=none;fillColor=none;align=center;verticalAlign=middle;whiteSpace=wrap;rounded=0;" parent="1" vertex="1">
          <mxGeometry x="340" y="390" width="20" height="20" as="geometry" />
        </mxCell>
        <mxCell id="y1xQ33muBoSTJrlKvMSJ-79" style="edgeStyle=orthogonalEdgeStyle;rounded=0;orthogonalLoop=1;jettySize=auto;html=1;exitX=1;exitY=0.5;exitDx=0;exitDy=0;" parent="1" source="y1xQ33muBoSTJrlKvMSJ-55" edge="1">
          <mxGeometry relative="1" as="geometry">
            <mxPoint x="550" y="560" as="targetPoint" />
            <Array as="points">
              <mxPoint x="440" y="420" />
              <mxPoint x="440" y="560" />
            </Array>
          </mxGeometry>
        </mxCell>
        <mxCell id="y1xQ33muBoSTJrlKvMSJ-55" value="&lt;font style=&quot;font-size: 10px;&quot;&gt;rd&lt;/font&gt;" style="text;html=1;strokeColor=none;fillColor=none;align=center;verticalAlign=middle;whiteSpace=wrap;rounded=0;" parent="1" vertex="1">
          <mxGeometry x="340" y="410" width="20" height="20" as="geometry" />
        </mxCell>
        <mxCell id="y1xQ33muBoSTJrlKvMSJ-62" style="edgeStyle=orthogonalEdgeStyle;rounded=0;orthogonalLoop=1;jettySize=auto;html=1;fillColor=#1ba1e2;strokeColor=#FF00FF;exitX=1;exitY=0.5;exitDx=0;exitDy=0;entryX=0;entryY=0.5;entryDx=0;entryDy=0;strokeWidth=2;" parent="1" source="y1xQ33muBoSTJrlKvMSJ-57" target="5TQuwyumRw6ZRlAPxjWT-103" edge="1">
          <mxGeometry relative="1" as="geometry">
            <mxPoint x="440" y="229.94" as="targetPoint" />
            <mxPoint x="380" y="460" as="sourcePoint" />
            <Array as="points">
              <mxPoint x="400" y="460" />
              <mxPoint x="400" y="130" />
            </Array>
          </mxGeometry>
        </mxCell>
        <mxCell id="y1xQ33muBoSTJrlKvMSJ-91" style="edgeStyle=orthogonalEdgeStyle;rounded=0;orthogonalLoop=1;jettySize=auto;html=1;exitX=1;exitY=0.5;exitDx=0;exitDy=0;" parent="1" edge="1">
          <mxGeometry relative="1" as="geometry">
            <mxPoint x="950" y="540" as="targetPoint" />
            <mxPoint x="360" y="445" as="sourcePoint" />
            <Array as="points">
              <mxPoint x="420" y="445" />
              <mxPoint x="420" y="540" />
              <mxPoint x="950" y="540" />
            </Array>
          </mxGeometry>
        </mxCell>
        <mxCell id="y1xQ33muBoSTJrlKvMSJ-56" value="&lt;font style=&quot;font-size: 10px;&quot;&gt;shamt&lt;/font&gt;" style="text;html=1;strokeColor=none;fillColor=none;align=center;verticalAlign=middle;whiteSpace=wrap;rounded=0;" parent="1" vertex="1">
          <mxGeometry x="320" y="430" width="40" height="20" as="geometry" />
        </mxCell>
        <mxCell id="y1xQ33muBoSTJrlKvMSJ-57" value="&lt;font style=&quot;font-size: 10px;&quot;&gt;funct&lt;br&gt;&lt;/font&gt;" style="text;html=1;strokeColor=none;fillColor=none;align=center;verticalAlign=middle;whiteSpace=wrap;rounded=0;" parent="1" vertex="1">
          <mxGeometry x="330" y="450" width="30" height="20" as="geometry" />
        </mxCell>
        <mxCell id="y1xQ33muBoSTJrlKvMSJ-70" style="edgeStyle=orthogonalEdgeStyle;rounded=0;orthogonalLoop=1;jettySize=auto;html=1;entryX=1;entryY=0.5;entryDx=0;entryDy=0;" parent="1" source="y1xQ33muBoSTJrlKvMSJ-58" target="y1xQ33muBoSTJrlKvMSJ-31" edge="1">
          <mxGeometry relative="1" as="geometry">
            <mxPoint x="150" y="680" as="targetPoint" />
            <Array as="points">
              <mxPoint x="400" y="490" />
              <mxPoint x="400" y="750" />
              <mxPoint x="230" y="750" />
              <mxPoint x="230" y="540" />
            </Array>
          </mxGeometry>
        </mxCell>
        <mxCell id="y1xQ33muBoSTJrlKvMSJ-85" style="edgeStyle=orthogonalEdgeStyle;rounded=0;orthogonalLoop=1;jettySize=auto;html=1;entryX=0;entryY=0.5;entryDx=0;entryDy=0;" parent="1" source="y1xQ33muBoSTJrlKvMSJ-58" target="y1xQ33muBoSTJrlKvMSJ-122" edge="1">
          <mxGeometry relative="1" as="geometry">
            <mxPoint x="470" y="640" as="targetPoint" />
            <Array as="points">
              <mxPoint x="400" y="490" />
              <mxPoint x="400" y="650" />
            </Array>
          </mxGeometry>
        </mxCell>
        <mxCell id="y1xQ33muBoSTJrlKvMSJ-58" value="&lt;font style=&quot;font-size: 10px;&quot;&gt;imm16&lt;br&gt;&lt;/font&gt;" style="text;html=1;strokeColor=none;fillColor=none;align=center;verticalAlign=middle;whiteSpace=wrap;rounded=0;" parent="1" vertex="1">
          <mxGeometry x="320" y="480" width="40" height="20" as="geometry" />
        </mxCell>
        <mxCell id="y1xQ33muBoSTJrlKvMSJ-68" style="edgeStyle=orthogonalEdgeStyle;rounded=0;orthogonalLoop=1;jettySize=auto;html=1;entryX=1;entryY=0.5;entryDx=0;entryDy=0;exitX=1;exitY=0.5;exitDx=0;exitDy=0;" parent="1" source="y1xQ33muBoSTJrlKvMSJ-59" target="y1xQ33muBoSTJrlKvMSJ-32" edge="1">
          <mxGeometry relative="1" as="geometry">
            <mxPoint x="160" y="560" as="targetPoint" />
            <mxPoint x="350" y="530" as="sourcePoint" />
            <Array as="points">
              <mxPoint x="380" y="530" />
              <mxPoint x="380" y="760" />
              <mxPoint x="210" y="760" />
              <mxPoint x="210" y="560" />
            </Array>
          </mxGeometry>
        </mxCell>
        <mxCell id="y1xQ33muBoSTJrlKvMSJ-59" value="&lt;font style=&quot;font-size: 10px;&quot;&gt;instr_index&lt;br&gt;&lt;/font&gt;" style="text;html=1;strokeColor=none;fillColor=none;align=center;verticalAlign=middle;whiteSpace=wrap;rounded=0;" parent="1" vertex="1">
          <mxGeometry x="300" y="520" width="60" height="20" as="geometry" />
        </mxCell>
        <mxCell id="y1xQ33muBoSTJrlKvMSJ-65" value="&lt;font style=&quot;font-size: 10px;&quot;&gt;A1&lt;/font&gt;" style="text;html=1;strokeColor=none;fillColor=none;align=center;verticalAlign=middle;whiteSpace=wrap;rounded=0;" parent="1" vertex="1">
          <mxGeometry x="550" y="370" width="20" height="20" as="geometry" />
        </mxCell>
        <mxCell id="y1xQ33muBoSTJrlKvMSJ-66" value="&lt;font style=&quot;font-size: 10px;&quot;&gt;A2&lt;/font&gt;" style="text;html=1;strokeColor=none;fillColor=none;align=center;verticalAlign=middle;whiteSpace=wrap;rounded=0;" parent="1" vertex="1">
          <mxGeometry x="550" y="390" width="20" height="20" as="geometry" />
        </mxCell>
        <mxCell id="y1xQ33muBoSTJrlKvMSJ-77" style="edgeStyle=orthogonalEdgeStyle;rounded=0;orthogonalLoop=1;jettySize=auto;html=1;exitX=1;exitY=0.5;exitDx=0;exitDy=0;" parent="1" source="y1xQ33muBoSTJrlKvMSJ-75" edge="1">
          <mxGeometry relative="1" as="geometry">
            <mxPoint x="700" y="380" as="targetPoint" />
            <mxPoint x="639.9899999999999" y="370" as="sourcePoint" />
          </mxGeometry>
        </mxCell>
        <mxCell id="y1xQ33muBoSTJrlKvMSJ-75" value="&lt;font style=&quot;font-size: 10px;&quot;&gt;V1&lt;/font&gt;" style="text;html=1;strokeColor=none;fillColor=none;align=center;verticalAlign=middle;whiteSpace=wrap;rounded=0;" parent="1" vertex="1">
          <mxGeometry x="590" y="370" width="20" height="20" as="geometry" />
        </mxCell>
        <mxCell id="y1xQ33muBoSTJrlKvMSJ-78" style="edgeStyle=orthogonalEdgeStyle;rounded=0;orthogonalLoop=1;jettySize=auto;html=1;exitX=1;exitY=0.5;exitDx=0;exitDy=0;" parent="1" source="y1xQ33muBoSTJrlKvMSJ-76" edge="1">
          <mxGeometry relative="1" as="geometry">
            <mxPoint x="700" y="460" as="targetPoint" />
            <Array as="points">
              <mxPoint x="630" y="400" />
              <mxPoint x="630" y="460" />
            </Array>
          </mxGeometry>
        </mxCell>
        <mxCell id="y1xQ33muBoSTJrlKvMSJ-76" value="&lt;font style=&quot;font-size: 10px;&quot;&gt;V2&lt;/font&gt;" style="text;html=1;strokeColor=none;fillColor=none;align=center;verticalAlign=middle;whiteSpace=wrap;rounded=0;" parent="1" vertex="1">
          <mxGeometry x="590" y="390" width="20" height="20" as="geometry" />
        </mxCell>
        <mxCell id="y1xQ33muBoSTJrlKvMSJ-101" style="edgeStyle=orthogonalEdgeStyle;rounded=0;orthogonalLoop=1;jettySize=auto;html=1;exitX=0.5;exitY=0;exitDx=0;exitDy=0;" parent="1" source="y1xQ33muBoSTJrlKvMSJ-82" edge="1">
          <mxGeometry relative="1" as="geometry">
            <mxPoint x="950" y="580" as="targetPoint" />
            <mxPoint x="620" y="550" as="sourcePoint" />
            <Array as="points">
              <mxPoint x="850" y="580" />
            </Array>
          </mxGeometry>
        </mxCell>
        <mxCell id="y1xQ33muBoSTJrlKvMSJ-82" value="&lt;font color=&quot;#ff00ff&quot; style=&quot;font-size: 14px;&quot;&gt;MUX_&lt;br&gt;GRF_A3&lt;br&gt;_D&lt;/font&gt;" style="shape=trapezoid;perimeter=trapezoidPerimeter;whiteSpace=wrap;html=1;fixedSize=1;direction=south;" parent="1" vertex="1">
          <mxGeometry x="550" y="545" width="60" height="70" as="geometry" />
        </mxCell>
        <mxCell id="y1xQ33muBoSTJrlKvMSJ-83" value="&lt;font style=&quot;font-size: 12px;&quot;&gt;5&#39;d31&lt;/font&gt;" style="text;html=1;strokeColor=none;fillColor=none;align=center;verticalAlign=middle;whiteSpace=wrap;rounded=0;" parent="1" vertex="1">
          <mxGeometry x="480" y="590" width="30" height="20" as="geometry" />
        </mxCell>
        <mxCell id="y1xQ33muBoSTJrlKvMSJ-84" style="edgeStyle=orthogonalEdgeStyle;rounded=0;orthogonalLoop=1;jettySize=auto;html=1;exitX=1;exitY=0.5;exitDx=0;exitDy=0;" parent="1" source="y1xQ33muBoSTJrlKvMSJ-83" edge="1">
          <mxGeometry relative="1" as="geometry">
            <mxPoint x="490" y="607.409900990099" as="sourcePoint" />
            <mxPoint x="550" y="600" as="targetPoint" />
            <Array as="points">
              <mxPoint x="540" y="600" />
              <mxPoint x="540" y="600" />
            </Array>
          </mxGeometry>
        </mxCell>
        <mxCell id="y1xQ33muBoSTJrlKvMSJ-86" value="&lt;font color=&quot;#b266ff&quot; style=&quot;font-size: 16px;&quot;&gt;EXT&lt;/font&gt;" style="shape=trapezoid;perimeter=trapezoidPerimeter;whiteSpace=wrap;html=1;fixedSize=1;direction=north;" parent="1" vertex="1">
          <mxGeometry x="500" y="620" width="110" height="60" as="geometry" />
        </mxCell>
        <mxCell id="y1xQ33muBoSTJrlKvMSJ-92" value="" style="triangle;whiteSpace=wrap;html=1;direction=north;fillColor=#6a00ff;fontColor=#ffffff;strokeColor=#3700CC;" parent="1" vertex="1">
          <mxGeometry x="560" y="490" width="10" height="10" as="geometry" />
        </mxCell>
        <mxCell id="y1xQ33muBoSTJrlKvMSJ-16" value="&lt;font color=&quot;#ff3333&quot; style=&quot;font-size: 12px;&quot;&gt;0&lt;/font&gt;" style="text;html=1;strokeColor=none;fillColor=none;align=center;verticalAlign=middle;whiteSpace=wrap;rounded=0;fontColor=#00CC00;" parent="1" vertex="1">
          <mxGeometry x="590" y="490" width="10" height="10" as="geometry" />
        </mxCell>
        <mxCell id="y1xQ33muBoSTJrlKvMSJ-109" style="edgeStyle=orthogonalEdgeStyle;rounded=0;orthogonalLoop=1;jettySize=auto;html=1;exitX=0.5;exitY=1;exitDx=0;exitDy=0;entryX=0.5;entryY=1;entryDx=0;entryDy=0;" parent="1" source="y1xQ33muBoSTJrlKvMSJ-107" target="y1xQ33muBoSTJrlKvMSJ-28" edge="1">
          <mxGeometry relative="1" as="geometry">
            <mxPoint x="50" y="770" as="targetPoint" />
            <Array as="points">
              <mxPoint x="860" y="780" />
              <mxPoint x="100" y="780" />
            </Array>
          </mxGeometry>
        </mxCell>
        <mxCell id="y1xQ33muBoSTJrlKvMSJ-93" value="&lt;font style=&quot;font-size: 16px;&quot; color=&quot;#b266ff&quot;&gt;COMP&lt;/font&gt;" style="ellipse;whiteSpace=wrap;html=1;" parent="1" vertex="1">
          <mxGeometry x="810" y="410" width="100" height="70" as="geometry" />
        </mxCell>
        <mxCell id="y1xQ33muBoSTJrlKvMSJ-98" value="" style="endArrow=classic;html=1;rounded=0;entryX=0;entryY=0.5;entryDx=0;entryDy=0;" parent="1" target="ER48WJ5dUgR68-UzpMZ_-28" edge="1">
          <mxGeometry width="50" height="50" relative="1" as="geometry">
            <mxPoint x="260" y="490" as="sourcePoint" />
            <mxPoint x="490" y="700" as="targetPoint" />
            <Array as="points">
              <mxPoint x="280" y="490" />
              <mxPoint x="280" y="710" />
            </Array>
          </mxGeometry>
        </mxCell>
        <mxCell id="y1xQ33muBoSTJrlKvMSJ-104" value="&lt;font style=&quot;font-size: 10px;&quot;&gt;A&lt;/font&gt;" style="text;html=1;strokeColor=none;fillColor=none;align=center;verticalAlign=middle;whiteSpace=wrap;rounded=0;" parent="1" vertex="1">
          <mxGeometry x="820" y="420" width="20" height="20" as="geometry" />
        </mxCell>
        <mxCell id="y1xQ33muBoSTJrlKvMSJ-105" value="&lt;font style=&quot;font-size: 10px;&quot;&gt;B&lt;/font&gt;" style="text;html=1;strokeColor=none;fillColor=none;align=center;verticalAlign=middle;whiteSpace=wrap;rounded=0;" parent="1" vertex="1">
          <mxGeometry x="820" y="450" width="20" height="20" as="geometry" />
        </mxCell>
        <mxCell id="y1xQ33muBoSTJrlKvMSJ-106" value="&lt;font style=&quot;font-size: 20px;&quot;&gt;图中未标出的部分信号&lt;br&gt;由组件输出的信号，命名为：组件名_信号名&lt;br&gt;由流水线寄存器输出的信号，命名为：信号名_寄存器阶段名&lt;/font&gt;" style="text;html=1;strokeColor=none;fillColor=none;align=left;verticalAlign=middle;whiteSpace=wrap;rounded=0;" parent="1" vertex="1">
          <mxGeometry x="930" y="55" width="540" height="85" as="geometry" />
        </mxCell>
        <mxCell id="y1xQ33muBoSTJrlKvMSJ-107" value="&lt;font style=&quot;font-size: 10px;&quot;&gt;BranchComp&lt;/font&gt;" style="text;html=1;strokeColor=none;fillColor=none;align=center;verticalAlign=middle;whiteSpace=wrap;rounded=0;" parent="1" vertex="1">
          <mxGeometry x="830" y="460" width="60" height="20" as="geometry" />
        </mxCell>
        <mxCell id="y1xQ33muBoSTJrlKvMSJ-113" style="edgeStyle=orthogonalEdgeStyle;rounded=0;orthogonalLoop=1;jettySize=auto;html=1;exitX=1;exitY=0.5;exitDx=0;exitDy=0;" parent="1" source="ER48WJ5dUgR68-UzpMZ_-29" edge="1">
          <mxGeometry relative="1" as="geometry">
            <mxPoint x="950" y="710" as="targetPoint" />
            <Array as="points" />
            <mxPoint x="620" y="720" as="sourcePoint" />
          </mxGeometry>
        </mxCell>
        <mxCell id="y1xQ33muBoSTJrlKvMSJ-115" value="" style="triangle;whiteSpace=wrap;html=1;direction=east;fillColor=#6a00ff;fontColor=#ffffff;strokeColor=#3700CC;" parent="1" vertex="1">
          <mxGeometry x="950" y="730" width="10" height="10" as="geometry" />
        </mxCell>
        <mxCell id="y1xQ33muBoSTJrlKvMSJ-116" value="&lt;font style=&quot;font-size: 16px;&quot; color=&quot;#b266ff&quot;&gt;FR_E&lt;br&gt;&lt;/font&gt;" style="text;html=1;strokeColor=none;fillColor=none;align=center;verticalAlign=middle;whiteSpace=wrap;rounded=0;" parent="1" vertex="1">
          <mxGeometry x="910" y="180" width="40" height="20" as="geometry" />
        </mxCell>
        <mxCell id="y1xQ33muBoSTJrlKvMSJ-117" value="" style="endArrow=classic;html=1;rounded=0;" parent="1" edge="1">
          <mxGeometry width="50" height="50" relative="1" as="geometry">
            <mxPoint x="950" y="380" as="sourcePoint" />
            <mxPoint x="1050" y="380" as="targetPoint" />
          </mxGeometry>
        </mxCell>
        <mxCell id="y1xQ33muBoSTJrlKvMSJ-119" value="" style="endArrow=classic;html=1;rounded=0;" parent="1" edge="1">
          <mxGeometry width="50" height="50" relative="1" as="geometry">
            <mxPoint x="950" y="650" as="sourcePoint" />
            <mxPoint x="1200" y="465" as="targetPoint" />
            <Array as="points">
              <mxPoint x="1180" y="650" />
              <mxPoint x="1180" y="465" />
            </Array>
          </mxGeometry>
        </mxCell>
        <mxCell id="5TQuwyumRw6ZRlAPxjWT-202" style="edgeStyle=orthogonalEdgeStyle;rounded=0;orthogonalLoop=1;jettySize=auto;html=1;fontFamily=Helvetica;fontSize=12;fontColor=default;entryX=0;entryY=0.5;entryDx=0;entryDy=0;" parent="1" target="ER48WJ5dUgR68-UzpMZ_-22" edge="1">
          <mxGeometry relative="1" as="geometry">
            <mxPoint x="1270" y="450" as="targetPoint" />
            <mxPoint x="1250" y="450" as="sourcePoint" />
          </mxGeometry>
        </mxCell>
        <mxCell id="y1xQ33muBoSTJrlKvMSJ-122" value="&lt;font style=&quot;font-size: 10px;&quot;&gt;imm16&lt;br&gt;&lt;/font&gt;" style="text;html=1;strokeColor=none;fillColor=none;align=center;verticalAlign=middle;whiteSpace=wrap;rounded=0;" parent="1" vertex="1">
          <mxGeometry x="500" y="640" width="40" height="20" as="geometry" />
        </mxCell>
        <mxCell id="y1xQ33muBoSTJrlKvMSJ-123" value="&lt;font style=&quot;font-size: 10px;&quot;&gt;ext32&lt;br&gt;&lt;/font&gt;" style="text;html=1;strokeColor=none;fillColor=none;align=center;verticalAlign=middle;whiteSpace=wrap;rounded=0;" parent="1" vertex="1">
          <mxGeometry x="580" y="640" width="30" height="20" as="geometry" />
        </mxCell>
        <mxCell id="y1xQ33muBoSTJrlKvMSJ-131" style="edgeStyle=orthogonalEdgeStyle;rounded=0;orthogonalLoop=1;jettySize=auto;html=1;" parent="1" edge="1">
          <mxGeometry relative="1" as="geometry">
            <mxPoint x="1460" y="450" as="targetPoint" />
            <mxPoint x="1430" y="450" as="sourcePoint" />
            <Array as="points" />
          </mxGeometry>
        </mxCell>
        <mxCell id="y1xQ33muBoSTJrlKvMSJ-126" value="" style="endArrow=classic;html=1;rounded=0;entryX=0;entryY=1;entryDx=0;entryDy=0;" parent="1" target="ER48WJ5dUgR68-UzpMZ_-24" edge="1">
          <mxGeometry width="50" height="50" relative="1" as="geometry">
            <mxPoint x="950" y="540" as="sourcePoint" />
            <mxPoint x="1250" y="500" as="targetPoint" />
            <Array as="points">
              <mxPoint x="1030" y="540" />
              <mxPoint x="1220" y="540" />
              <mxPoint x="1220" y="500" />
            </Array>
          </mxGeometry>
        </mxCell>
        <mxCell id="y1xQ33muBoSTJrlKvMSJ-127" value="" style="endArrow=classic;html=1;rounded=0;" parent="1" edge="1">
          <mxGeometry width="50" height="50" relative="1" as="geometry">
            <mxPoint x="950" y="579.73" as="sourcePoint" />
            <mxPoint x="1460" y="580" as="targetPoint" />
          </mxGeometry>
        </mxCell>
        <mxCell id="y1xQ33muBoSTJrlKvMSJ-128" value="" style="endArrow=classic;html=1;rounded=0;" parent="1" edge="1">
          <mxGeometry width="50" height="50" relative="1" as="geometry">
            <mxPoint x="950" y="649.73" as="sourcePoint" />
            <mxPoint x="1460" y="650" as="targetPoint" />
          </mxGeometry>
        </mxCell>
        <mxCell id="y1xQ33muBoSTJrlKvMSJ-129" value="" style="endArrow=classic;html=1;rounded=0;" parent="1" edge="1">
          <mxGeometry width="50" height="50" relative="1" as="geometry">
            <mxPoint x="950" y="710" as="sourcePoint" />
            <mxPoint x="1460" y="710" as="targetPoint" />
          </mxGeometry>
        </mxCell>
        <mxCell id="y1xQ33muBoSTJrlKvMSJ-133" value="" style="triangle;whiteSpace=wrap;html=1;direction=east;fillColor=#6a00ff;fontColor=#ffffff;strokeColor=#3700CC;" parent="1" vertex="1">
          <mxGeometry x="1460" y="730" width="10" height="10" as="geometry" />
        </mxCell>
        <mxCell id="y1xQ33muBoSTJrlKvMSJ-134" value="&lt;font style=&quot;font-size: 16px;&quot; color=&quot;#b266ff&quot;&gt;FR_M&lt;br&gt;&lt;/font&gt;" style="text;html=1;strokeColor=none;fillColor=none;align=center;verticalAlign=middle;whiteSpace=wrap;rounded=0;" parent="1" vertex="1">
          <mxGeometry x="1420" y="180" width="40" height="20" as="geometry" />
        </mxCell>
        <mxCell id="y1xQ33muBoSTJrlKvMSJ-136" value="" style="endArrow=classic;html=1;rounded=0;entryX=0;entryY=0.5;entryDx=0;entryDy=0;" parent="1" target="y1xQ33muBoSTJrlKvMSJ-140" edge="1">
          <mxGeometry width="50" height="50" relative="1" as="geometry">
            <mxPoint x="1460" y="450" as="sourcePoint" />
            <mxPoint x="1620" y="450" as="targetPoint" />
          </mxGeometry>
        </mxCell>
        <mxCell id="y1xQ33muBoSTJrlKvMSJ-137" value="" style="endArrow=classic;html=1;rounded=0;" parent="1" edge="1">
          <mxGeometry width="50" height="50" relative="1" as="geometry">
            <mxPoint x="1540" y="450" as="sourcePoint" />
            <mxPoint x="1880" y="400" as="targetPoint" />
            <Array as="points">
              <mxPoint x="1540" y="400" />
            </Array>
          </mxGeometry>
        </mxCell>
        <mxCell id="y1xQ33muBoSTJrlKvMSJ-138" value="" style="endArrow=classic;html=1;rounded=0;" parent="1" edge="1">
          <mxGeometry width="50" height="50" relative="1" as="geometry">
            <mxPoint x="1460" y="510" as="sourcePoint" />
            <mxPoint x="1560" y="510" as="targetPoint" />
            <Array as="points" />
          </mxGeometry>
        </mxCell>
        <mxCell id="LJ8jeTjM3cDZCOLipH15-14" style="edgeStyle=orthogonalEdgeStyle;rounded=0;orthogonalLoop=1;jettySize=auto;html=1;exitX=1;exitY=0.5;exitDx=0;exitDy=0;entryX=0.25;entryY=0;entryDx=0;entryDy=0;" parent="1" source="y1xQ33muBoSTJrlKvMSJ-140" target="LJ8jeTjM3cDZCOLipH15-30" edge="1">
          <mxGeometry relative="1" as="geometry">
            <mxPoint x="1688" y="470" as="targetPoint" />
          </mxGeometry>
        </mxCell>
        <mxCell id="y1xQ33muBoSTJrlKvMSJ-140" value="A" style="text;html=1;strokeColor=none;fillColor=none;align=center;verticalAlign=middle;whiteSpace=wrap;rounded=0;" parent="1" vertex="1">
          <mxGeometry x="1630" y="440" width="20" height="20" as="geometry" />
        </mxCell>
        <mxCell id="5TQuwyumRw6ZRlAPxjWT-230" style="edgeStyle=orthogonalEdgeStyle;rounded=0;orthogonalLoop=1;jettySize=auto;html=1;fontFamily=Helvetica;fontSize=12;fontColor=default;exitX=1;exitY=0.5;exitDx=0;exitDy=0;" parent="1" source="y1xQ33muBoSTJrlKvMSJ-142" edge="1">
          <mxGeometry relative="1" as="geometry">
            <mxPoint x="1880" y="460" as="targetPoint" />
            <mxPoint x="1840" y="460" as="sourcePoint" />
          </mxGeometry>
        </mxCell>
        <mxCell id="y1xQ33muBoSTJrlKvMSJ-142" value="Q" style="text;html=1;strokeColor=none;fillColor=none;align=center;verticalAlign=middle;whiteSpace=wrap;rounded=0;" parent="1" vertex="1">
          <mxGeometry x="1840" y="450" width="20" height="20" as="geometry" />
        </mxCell>
        <mxCell id="y1xQ33muBoSTJrlKvMSJ-143" value="" style="endArrow=classic;html=1;rounded=0;" parent="1" edge="1">
          <mxGeometry width="50" height="50" relative="1" as="geometry">
            <mxPoint x="1460" y="649.71" as="sourcePoint" />
            <mxPoint x="1880" y="650" as="targetPoint" />
          </mxGeometry>
        </mxCell>
        <mxCell id="5TQuwyumRw6ZRlAPxjWT-2" value="" style="triangle;whiteSpace=wrap;html=1;direction=east;fillColor=#6a00ff;fontColor=#ffffff;strokeColor=#3700CC;" parent="1" vertex="1">
          <mxGeometry x="1880" y="730" width="10" height="10" as="geometry" />
        </mxCell>
        <mxCell id="5TQuwyumRw6ZRlAPxjWT-3" value="&lt;font style=&quot;font-size: 16px;&quot; color=&quot;#b266ff&quot;&gt;FR_W&lt;br&gt;&lt;/font&gt;" style="text;html=1;strokeColor=none;fillColor=none;align=center;verticalAlign=middle;whiteSpace=wrap;rounded=0;" parent="1" vertex="1">
          <mxGeometry x="1840" y="180" width="40" height="20" as="geometry" />
        </mxCell>
        <mxCell id="5TQuwyumRw6ZRlAPxjWT-4" value="" style="endArrow=classic;html=1;rounded=0;exitX=0.01;exitY=0.603;exitDx=0;exitDy=0;exitPerimeter=0;" parent="1" edge="1">
          <mxGeometry width="50" height="50" relative="1" as="geometry">
            <mxPoint x="1460" y="580" as="sourcePoint" />
            <mxPoint x="1880" y="580" as="targetPoint" />
          </mxGeometry>
        </mxCell>
        <mxCell id="5TQuwyumRw6ZRlAPxjWT-5" value="" style="endArrow=classic;html=1;rounded=0;exitX=0.003;exitY=0.952;exitDx=0;exitDy=0;exitPerimeter=0;" parent="1" edge="1">
          <mxGeometry width="50" height="50" relative="1" as="geometry">
            <mxPoint x="1460" y="709.3600000000001" as="sourcePoint" />
            <mxPoint x="1880" y="710" as="targetPoint" />
          </mxGeometry>
        </mxCell>
        <mxCell id="5TQuwyumRw6ZRlAPxjWT-8" value="" style="endArrow=classic;html=1;rounded=0;" parent="1" edge="1">
          <mxGeometry width="50" height="50" relative="1" as="geometry">
            <mxPoint x="1880" y="400" as="sourcePoint" />
            <mxPoint x="1950" y="440" as="targetPoint" />
            <Array as="points">
              <mxPoint x="1910" y="400" />
              <mxPoint x="1910" y="440" />
            </Array>
          </mxGeometry>
        </mxCell>
        <mxCell id="5TQuwyumRw6ZRlAPxjWT-9" value="" style="endArrow=classic;html=1;rounded=0;" parent="1" edge="1">
          <mxGeometry width="50" height="50" relative="1" as="geometry">
            <mxPoint x="1880" y="460" as="sourcePoint" />
            <mxPoint x="1950" y="460" as="targetPoint" />
          </mxGeometry>
        </mxCell>
        <mxCell id="5TQuwyumRw6ZRlAPxjWT-10" value="" style="endArrow=classic;html=1;rounded=0;" parent="1" edge="1">
          <mxGeometry width="50" height="50" relative="1" as="geometry">
            <mxPoint x="1880" y="710" as="sourcePoint" />
            <mxPoint x="1950" y="500" as="targetPoint" />
            <Array as="points">
              <mxPoint x="1930" y="710" />
              <mxPoint x="1930" y="500" />
            </Array>
          </mxGeometry>
        </mxCell>
        <mxCell id="5TQuwyumRw6ZRlAPxjWT-11" value="" style="endArrow=classic;html=1;rounded=0;" parent="1" edge="1">
          <mxGeometry width="50" height="50" relative="1" as="geometry">
            <mxPoint x="1880" y="650" as="sourcePoint" />
            <mxPoint x="1950" y="480" as="targetPoint" />
            <Array as="points">
              <mxPoint x="1910" y="650" />
              <mxPoint x="1910" y="480" />
            </Array>
          </mxGeometry>
        </mxCell>
        <mxCell id="5TQuwyumRw6ZRlAPxjWT-12" value="" style="rounded=0;whiteSpace=wrap;html=1;" parent="1" vertex="1">
          <mxGeometry x="2060" y="360" width="120" height="140" as="geometry" />
        </mxCell>
        <mxCell id="5TQuwyumRw6ZRlAPxjWT-13" value="" style="endArrow=classic;html=1;rounded=0;entryX=0;entryY=0.5;entryDx=0;entryDy=0;" parent="1" target="5TQuwyumRw6ZRlAPxjWT-27" edge="1">
          <mxGeometry width="50" height="50" relative="1" as="geometry">
            <mxPoint x="1880" y="580" as="sourcePoint" />
            <mxPoint x="2040" y="450" as="targetPoint" />
            <Array as="points">
              <mxPoint x="2030" y="580" />
              <mxPoint x="2030" y="510" />
              <mxPoint x="2030" y="450" />
            </Array>
          </mxGeometry>
        </mxCell>
        <mxCell id="5TQuwyumRw6ZRlAPxjWT-14" value="" style="endArrow=classic;html=1;rounded=0;exitX=0.5;exitY=0;exitDx=0;exitDy=0;entryX=0;entryY=0.5;entryDx=0;entryDy=0;" parent="1" target="5TQuwyumRw6ZRlAPxjWT-28" edge="1">
          <mxGeometry width="50" height="50" relative="1" as="geometry">
            <mxPoint x="2000" y="470" as="sourcePoint" />
            <mxPoint x="2040" y="470" as="targetPoint" />
            <Array as="points">
              <mxPoint x="2017" y="470" />
            </Array>
          </mxGeometry>
        </mxCell>
        <mxCell id="5TQuwyumRw6ZRlAPxjWT-15" value="&lt;font style=&quot;font-size: 10px;&quot;&gt;A1&lt;/font&gt;" style="text;html=1;strokeColor=none;fillColor=none;align=center;verticalAlign=middle;whiteSpace=wrap;rounded=0;" parent="1" vertex="1">
          <mxGeometry x="2060" y="370" width="20" height="20" as="geometry" />
        </mxCell>
        <mxCell id="5TQuwyumRw6ZRlAPxjWT-16" value="&lt;font style=&quot;font-size: 10px;&quot;&gt;A2&lt;/font&gt;" style="text;html=1;strokeColor=none;fillColor=none;align=center;verticalAlign=middle;whiteSpace=wrap;rounded=0;" parent="1" vertex="1">
          <mxGeometry x="2060" y="390" width="20" height="20" as="geometry" />
        </mxCell>
        <mxCell id="5TQuwyumRw6ZRlAPxjWT-17" value="&lt;font style=&quot;font-size: 10px;&quot;&gt;V1&lt;/font&gt;" style="text;html=1;strokeColor=none;fillColor=none;align=center;verticalAlign=middle;whiteSpace=wrap;rounded=0;" parent="1" vertex="1">
          <mxGeometry x="2160" y="380" width="20" height="20" as="geometry" />
        </mxCell>
        <mxCell id="5TQuwyumRw6ZRlAPxjWT-18" value="&lt;font style=&quot;font-size: 10px;&quot;&gt;V2&lt;/font&gt;" style="text;html=1;strokeColor=none;fillColor=none;align=center;verticalAlign=middle;whiteSpace=wrap;rounded=0;" parent="1" vertex="1">
          <mxGeometry x="2160" y="430" width="20" height="20" as="geometry" />
        </mxCell>
        <mxCell id="5TQuwyumRw6ZRlAPxjWT-23" value="" style="triangle;whiteSpace=wrap;html=1;direction=north;fillColor=#6a00ff;fontColor=#ffffff;strokeColor=#3700CC;" parent="1" vertex="1">
          <mxGeometry x="2090" y="490" width="10" height="10" as="geometry" />
        </mxCell>
        <mxCell id="5TQuwyumRw6ZRlAPxjWT-24" value="&lt;font color=&quot;#ff3333&quot; style=&quot;font-size: 12px;&quot;&gt;0&lt;/font&gt;" style="text;html=1;strokeColor=none;fillColor=none;align=center;verticalAlign=middle;whiteSpace=wrap;rounded=0;fontColor=#00CC00;" parent="1" vertex="1">
          <mxGeometry x="2140" y="490" width="10" height="10" as="geometry" />
        </mxCell>
        <mxCell id="5TQuwyumRw6ZRlAPxjWT-25" value="" style="triangle;whiteSpace=wrap;html=1;direction=north;fillColor=#FF3333;fontColor=#0000FF;strokeColor=#FF3333;" parent="1" vertex="1">
          <mxGeometry x="1720" y="930" width="10" height="10" as="geometry" />
        </mxCell>
        <mxCell id="5TQuwyumRw6ZRlAPxjWT-26" value="&lt;font style=&quot;font-size: 12px;&quot;&gt;0&lt;/font&gt;" style="text;html=1;strokeColor=none;fillColor=none;align=center;verticalAlign=middle;whiteSpace=wrap;rounded=0;fontColor=#FF3333;" parent="1" vertex="1">
          <mxGeometry x="1740" y="930" width="10" height="10" as="geometry" />
        </mxCell>
        <mxCell id="5TQuwyumRw6ZRlAPxjWT-27" value="&lt;font style=&quot;font-size: 10px;&quot;&gt;A3&lt;/font&gt;" style="text;html=1;strokeColor=none;fillColor=none;align=center;verticalAlign=middle;whiteSpace=wrap;rounded=0;" parent="1" vertex="1">
          <mxGeometry x="2060" y="440" width="20" height="20" as="geometry" />
        </mxCell>
        <mxCell id="5TQuwyumRw6ZRlAPxjWT-28" value="&lt;font style=&quot;font-size: 10px;&quot;&gt;WD&lt;/font&gt;" style="text;html=1;strokeColor=none;fillColor=none;align=center;verticalAlign=middle;whiteSpace=wrap;rounded=0;" parent="1" vertex="1">
          <mxGeometry x="2060" y="460" width="20" height="20" as="geometry" />
        </mxCell>
        <mxCell id="5TQuwyumRw6ZRlAPxjWT-29" value="" style="endArrow=classic;html=1;rounded=0;entryX=1;entryY=0.5;entryDx=0;entryDy=0;" parent="1" target="y1xQ33muBoSTJrlKvMSJ-33" edge="1">
          <mxGeometry width="50" height="50" relative="1" as="geometry">
            <mxPoint x="930" y="380" as="sourcePoint" />
            <mxPoint x="160" y="580" as="targetPoint" />
            <Array as="points">
              <mxPoint x="930" y="550" />
              <mxPoint x="930" y="770" />
              <mxPoint x="190" y="770" />
              <mxPoint x="190" y="580" />
              <mxPoint x="170" y="580" />
            </Array>
          </mxGeometry>
        </mxCell>
        <mxCell id="5TQuwyumRw6ZRlAPxjWT-30" value="&lt;font color=&quot;#ff3333&quot; style=&quot;font-size: 12px;&quot;&gt;0&lt;/font&gt;" style="text;html=1;strokeColor=none;fillColor=none;align=center;verticalAlign=middle;whiteSpace=wrap;rounded=0;fontColor=#00CC00;" parent="1" vertex="1">
          <mxGeometry x="100" y="470" width="10" height="10" as="geometry" />
        </mxCell>
        <mxCell id="5TQuwyumRw6ZRlAPxjWT-31" value="&lt;font&gt;0&lt;/font&gt;" style="text;html=1;strokeColor=none;fillColor=none;align=center;verticalAlign=middle;whiteSpace=wrap;rounded=0;fontColor=#006600;" parent="1" vertex="1">
          <mxGeometry x="930" y="730" width="20" height="10" as="geometry" />
        </mxCell>
        <mxCell id="5TQuwyumRw6ZRlAPxjWT-36" value="" style="shape=trapezoid;perimeter=trapezoidPerimeter;whiteSpace=wrap;html=1;fixedSize=1;direction=south;size=10;" parent="1" vertex="1">
          <mxGeometry x="2130" y="360" width="30" height="40" as="geometry" />
        </mxCell>
        <mxCell id="5TQuwyumRw6ZRlAPxjWT-37" value="" style="shape=trapezoid;perimeter=trapezoidPerimeter;whiteSpace=wrap;html=1;fixedSize=1;direction=south;size=10;" parent="1" vertex="1">
          <mxGeometry x="2130" y="410" width="30" height="40" as="geometry" />
        </mxCell>
        <mxCell id="5TQuwyumRw6ZRlAPxjWT-39" value="&lt;font style=&quot;font-size: 10px;&quot;&gt;RD1&lt;/font&gt;" style="text;html=1;strokeColor=none;fillColor=none;align=center;verticalAlign=middle;whiteSpace=wrap;rounded=0;" parent="1" vertex="1">
          <mxGeometry x="2093" y="360" width="20" height="20" as="geometry" />
        </mxCell>
        <mxCell id="5TQuwyumRw6ZRlAPxjWT-40" value="" style="endArrow=classic;html=1;rounded=0;exitX=1;exitY=0.5;exitDx=0;exitDy=0;entryX=0.25;entryY=1;entryDx=0;entryDy=0;" parent="1" source="5TQuwyumRw6ZRlAPxjWT-39" target="5TQuwyumRw6ZRlAPxjWT-36" edge="1">
          <mxGeometry width="50" height="50" relative="1" as="geometry">
            <mxPoint x="2273" y="430" as="sourcePoint" />
            <mxPoint x="2133" y="370" as="targetPoint" />
          </mxGeometry>
        </mxCell>
        <mxCell id="5TQuwyumRw6ZRlAPxjWT-41" value="" style="endArrow=classic;html=1;rounded=0;exitX=1;exitY=0.5;exitDx=0;exitDy=0;entryX=0.75;entryY=1;entryDx=0;entryDy=0;" parent="1" source="5TQuwyumRw6ZRlAPxjWT-28" target="5TQuwyumRw6ZRlAPxjWT-36" edge="1">
          <mxGeometry width="50" height="50" relative="1" as="geometry">
            <mxPoint x="2210" y="570" as="sourcePoint" />
            <mxPoint x="2260" y="520" as="targetPoint" />
            <Array as="points">
              <mxPoint x="2080" y="390" />
            </Array>
          </mxGeometry>
        </mxCell>
        <mxCell id="5TQuwyumRw6ZRlAPxjWT-42" value="" style="endArrow=classic;html=1;rounded=0;exitX=1;exitY=0.5;exitDx=0;exitDy=0;entryX=0.75;entryY=1;entryDx=0;entryDy=0;" parent="1" source="5TQuwyumRw6ZRlAPxjWT-28" target="5TQuwyumRw6ZRlAPxjWT-37" edge="1">
          <mxGeometry width="50" height="50" relative="1" as="geometry">
            <mxPoint x="2120" y="550" as="sourcePoint" />
            <mxPoint x="2170" y="500" as="targetPoint" />
            <Array as="points">
              <mxPoint x="2080" y="440" />
            </Array>
          </mxGeometry>
        </mxCell>
        <mxCell id="5TQuwyumRw6ZRlAPxjWT-43" value="&lt;font style=&quot;font-size: 10px;&quot;&gt;RD1&lt;/font&gt;" style="text;html=1;strokeColor=none;fillColor=none;align=center;verticalAlign=middle;whiteSpace=wrap;rounded=0;" parent="1" vertex="1">
          <mxGeometry x="2093" y="410" width="20" height="20" as="geometry" />
        </mxCell>
        <mxCell id="5TQuwyumRw6ZRlAPxjWT-44" value="" style="endArrow=classic;html=1;rounded=0;exitX=1;exitY=0.5;exitDx=0;exitDy=0;entryX=0.25;entryY=1;entryDx=0;entryDy=0;" parent="1" source="5TQuwyumRw6ZRlAPxjWT-43" target="5TQuwyumRw6ZRlAPxjWT-37" edge="1">
          <mxGeometry width="50" height="50" relative="1" as="geometry">
            <mxPoint x="2117" y="420" as="sourcePoint" />
            <mxPoint x="2133" y="420" as="targetPoint" />
          </mxGeometry>
        </mxCell>
        <mxCell id="5TQuwyumRw6ZRlAPxjWT-45" value="" style="endArrow=classic;html=1;rounded=0;exitX=0.5;exitY=0;exitDx=0;exitDy=0;" parent="1" source="5TQuwyumRw6ZRlAPxjWT-36" edge="1">
          <mxGeometry width="50" height="50" relative="1" as="geometry">
            <mxPoint x="2193" y="420" as="sourcePoint" />
            <mxPoint x="2203" y="380" as="targetPoint" />
          </mxGeometry>
        </mxCell>
        <mxCell id="5TQuwyumRw6ZRlAPxjWT-46" value="" style="endArrow=classic;html=1;rounded=0;exitX=0.5;exitY=0;exitDx=0;exitDy=0;" parent="1" source="5TQuwyumRw6ZRlAPxjWT-37" edge="1">
          <mxGeometry width="50" height="50" relative="1" as="geometry">
            <mxPoint x="2193" y="430" as="sourcePoint" />
            <mxPoint x="2203" y="430" as="targetPoint" />
            <Array as="points">
              <mxPoint x="2190" y="430" />
            </Array>
          </mxGeometry>
        </mxCell>
        <mxCell id="5TQuwyumRw6ZRlAPxjWT-47" value="&lt;font style=&quot;font-size: 16px;&quot; color=&quot;#b266ff&quot;&gt;GRF_W&lt;br&gt;&lt;/font&gt;" style="text;html=1;strokeColor=none;fillColor=none;align=center;verticalAlign=middle;whiteSpace=wrap;rounded=0;" parent="1" vertex="1">
          <mxGeometry x="2100" y="460" width="70" height="20" as="geometry" />
        </mxCell>
        <mxCell id="5TQuwyumRw6ZRlAPxjWT-48" value="&lt;font style=&quot;font-size: 10px;&quot;&gt;EXTSel&lt;br&gt;&lt;/font&gt;" style="text;html=1;strokeColor=none;fillColor=none;align=center;verticalAlign=middle;whiteSpace=wrap;rounded=0;" parent="1" vertex="1">
          <mxGeometry x="570" y="660" width="40" height="20" as="geometry" />
        </mxCell>
        <mxCell id="5TQuwyumRw6ZRlAPxjWT-49" value="" style="endArrow=classic;dashed=1;html=1;rounded=0;entryX=0.5;entryY=1;entryDx=0;entryDy=0;strokeColor=#FF00FF;endFill=1;strokeWidth=2;" parent="1" target="y1xQ33muBoSTJrlKvMSJ-40" edge="1">
          <mxGeometry width="50" height="50" relative="1" as="geometry">
            <mxPoint x="150" y="650" as="sourcePoint" />
            <mxPoint x="190" y="660" as="targetPoint" />
            <Array as="points">
              <mxPoint x="150" y="640" />
            </Array>
          </mxGeometry>
        </mxCell>
        <mxCell id="5TQuwyumRw6ZRlAPxjWT-50" value="" style="endArrow=classic;dashed=1;html=1;rounded=0;strokeColor=#FF00FF;endFill=1;strokeWidth=2;entryX=1;entryY=0.5;entryDx=0;entryDy=0;" parent="1" target="5TQuwyumRw6ZRlAPxjWT-48" edge="1">
          <mxGeometry width="50" height="50" relative="1" as="geometry">
            <mxPoint x="630" y="670" as="sourcePoint" />
            <mxPoint x="595" y="640" as="targetPoint" />
            <Array as="points" />
          </mxGeometry>
        </mxCell>
        <mxCell id="5TQuwyumRw6ZRlAPxjWT-53" value="&lt;font style=&quot;font-size: 10px;&quot;&gt;A3&lt;/font&gt;" style="text;html=1;strokeColor=none;fillColor=none;align=center;verticalAlign=middle;whiteSpace=wrap;rounded=0;" parent="1" vertex="1">
          <mxGeometry x="550" y="450" width="20" height="20" as="geometry" />
        </mxCell>
        <mxCell id="5TQuwyumRw6ZRlAPxjWT-54" value="&lt;font style=&quot;font-size: 10px;&quot;&gt;D&lt;/font&gt;" style="text;html=1;strokeColor=none;fillColor=none;align=center;verticalAlign=middle;whiteSpace=wrap;rounded=0;" parent="1" vertex="1">
          <mxGeometry x="550" y="470" width="20" height="20" as="geometry" />
        </mxCell>
        <mxCell id="5TQuwyumRw6ZRlAPxjWT-55" value="&lt;font style=&quot;font-size: 10px;&quot;&gt;WE&lt;/font&gt;" style="text;html=1;strokeColor=none;fillColor=none;align=center;verticalAlign=middle;whiteSpace=wrap;rounded=0;" parent="1" vertex="1">
          <mxGeometry x="2060" y="420" width="20" height="20" as="geometry" />
        </mxCell>
        <mxCell id="LJ8jeTjM3cDZCOLipH15-88" style="edgeStyle=orthogonalEdgeStyle;rounded=0;orthogonalLoop=1;jettySize=auto;html=1;exitX=1;exitY=0.5;exitDx=0;exitDy=0;entryX=0;entryY=0.5;entryDx=0;entryDy=0;" parent="1" source="5TQuwyumRw6ZRlAPxjWT-56" target="LJ8jeTjM3cDZCOLipH15-30" edge="1">
          <mxGeometry relative="1" as="geometry" />
        </mxCell>
        <mxCell id="5TQuwyumRw6ZRlAPxjWT-56" value="&lt;font style=&quot;font-size: 10px;&quot;&gt;WE&lt;/font&gt;" style="text;html=1;strokeColor=none;fillColor=none;align=center;verticalAlign=middle;whiteSpace=wrap;rounded=0;" parent="1" vertex="1">
          <mxGeometry x="1630" y="480" width="20" height="20" as="geometry" />
        </mxCell>
        <mxCell id="5TQuwyumRw6ZRlAPxjWT-57" value="&lt;font style=&quot;font-size: 10px;&quot;&gt;CompSel&lt;br&gt;&lt;/font&gt;" style="text;html=1;strokeColor=none;fillColor=none;align=center;verticalAlign=middle;whiteSpace=wrap;rounded=0;" parent="1" vertex="1">
          <mxGeometry x="860" y="420" width="40" height="20" as="geometry" />
        </mxCell>
        <mxCell id="5TQuwyumRw6ZRlAPxjWT-58" value="" style="endArrow=classic;dashed=1;html=1;rounded=0;entryX=1;entryY=0.5;entryDx=0;entryDy=0;strokeColor=#FF00FF;endFill=1;strokeWidth=2;" parent="1" target="5TQuwyumRw6ZRlAPxjWT-57" edge="1">
          <mxGeometry width="50" height="50" relative="1" as="geometry">
            <mxPoint x="920" y="430" as="sourcePoint" />
            <mxPoint x="994.8600000000001" y="780" as="targetPoint" />
            <Array as="points" />
          </mxGeometry>
        </mxCell>
        <mxCell id="5TQuwyumRw6ZRlAPxjWT-59" value="&lt;font style=&quot;font-size: 10px;&quot;&gt;WE&lt;/font&gt;" style="text;html=1;strokeColor=none;fillColor=none;align=center;verticalAlign=middle;whiteSpace=wrap;rounded=0;" parent="1" vertex="1">
          <mxGeometry x="550" y="430" width="20" height="20" as="geometry" />
        </mxCell>
        <mxCell id="5TQuwyumRw6ZRlAPxjWT-62" value="" style="endArrow=classic;dashed=1;html=1;rounded=0;strokeColor=#FF00FF;endFill=1;exitX=0.5;exitY=1;exitDx=0;exitDy=0;strokeWidth=2;" parent="1" source="5TQuwyumRw6ZRlAPxjWT-64" edge="1">
          <mxGeometry width="50" height="50" relative="1" as="geometry">
            <mxPoint x="730" y="240" as="sourcePoint" />
            <mxPoint x="950" y="230" as="targetPoint" />
            <Array as="points">
              <mxPoint x="780" y="230" />
            </Array>
          </mxGeometry>
        </mxCell>
        <mxCell id="5TQuwyumRw6ZRlAPxjWT-63" value="&lt;font style=&quot;font-size: 10px;&quot;&gt;GRFWE&lt;/font&gt;" style="text;html=1;strokeColor=none;fillColor=none;align=center;verticalAlign=middle;whiteSpace=wrap;rounded=0;" parent="1" vertex="1">
          <mxGeometry x="720" y="170" width="40" height="20" as="geometry" />
        </mxCell>
        <mxCell id="5TQuwyumRw6ZRlAPxjWT-64" value="&lt;font style=&quot;font-size: 10px;&quot;&gt;DMWE&lt;/font&gt;" style="text;html=1;strokeColor=none;fillColor=none;align=center;verticalAlign=middle;whiteSpace=wrap;rounded=0;" parent="1" vertex="1">
          <mxGeometry x="760" y="170" width="40" height="20" as="geometry" />
        </mxCell>
        <mxCell id="5TQuwyumRw6ZRlAPxjWT-66" value="" style="endArrow=classic;dashed=1;html=1;rounded=0;strokeColor=#FF00FF;endFill=1;exitX=0.5;exitY=1;exitDx=0;exitDy=0;strokeWidth=2;" parent="1" source="5TQuwyumRw6ZRlAPxjWT-63" edge="1">
          <mxGeometry width="50" height="50" relative="1" as="geometry">
            <mxPoint x="700" y="220" as="sourcePoint" />
            <mxPoint x="950" y="250" as="targetPoint" />
            <Array as="points">
              <mxPoint x="740" y="250" />
            </Array>
          </mxGeometry>
        </mxCell>
        <mxCell id="5TQuwyumRw6ZRlAPxjWT-70" value="&lt;font style=&quot;font-size: 10px;&quot;&gt;GRF_A3_D_Sel&lt;br&gt;&lt;/font&gt;" style="text;html=1;strokeColor=none;fillColor=none;align=center;verticalAlign=middle;whiteSpace=wrap;rounded=0;" parent="1" vertex="1">
          <mxGeometry x="490" y="70" width="80" height="20" as="geometry" />
        </mxCell>
        <mxCell id="5TQuwyumRw6ZRlAPxjWT-71" value="&lt;font style=&quot;font-size: 10px;&quot;&gt;ALU_B_E_Sel&lt;br&gt;&lt;/font&gt;" style="text;html=1;strokeColor=none;fillColor=none;align=center;verticalAlign=middle;whiteSpace=wrap;rounded=0;" parent="1" vertex="1">
          <mxGeometry x="450" y="170" width="70" height="20" as="geometry" />
        </mxCell>
        <mxCell id="5TQuwyumRw6ZRlAPxjWT-73" value="&lt;font style=&quot;font-size: 10px;&quot;&gt;GRF_WD_W_Sel&lt;br&gt;&lt;/font&gt;" style="text;html=1;strokeColor=none;fillColor=none;align=center;verticalAlign=middle;whiteSpace=wrap;rounded=0;" parent="1" vertex="1">
          <mxGeometry x="520" y="170" width="80" height="20" as="geometry" />
        </mxCell>
        <mxCell id="5TQuwyumRw6ZRlAPxjWT-74" value="" style="endArrow=classic;dashed=1;html=1;rounded=0;strokeColor=#FF00FF;endFill=1;exitX=0.5;exitY=0;exitDx=0;exitDy=0;strokeWidth=2;" parent="1" source="5TQuwyumRw6ZRlAPxjWT-70" edge="1">
          <mxGeometry width="50" height="50" relative="1" as="geometry">
            <mxPoint x="483.5" y="200" as="sourcePoint" />
            <mxPoint x="530" y="30" as="targetPoint" />
          </mxGeometry>
        </mxCell>
        <mxCell id="5TQuwyumRw6ZRlAPxjWT-75" value="" style="endArrow=classic;dashed=1;html=1;rounded=0;strokeColor=#FF00FF;endFill=1;exitX=0.5;exitY=1;exitDx=0;exitDy=0;strokeWidth=2;" parent="1" source="5TQuwyumRw6ZRlAPxjWT-71" edge="1">
          <mxGeometry width="50" height="50" relative="1" as="geometry">
            <mxPoint x="495" y="219.99999999999977" as="sourcePoint" />
            <mxPoint x="950" y="350" as="targetPoint" />
            <Array as="points">
              <mxPoint x="485" y="350" />
            </Array>
          </mxGeometry>
        </mxCell>
        <mxCell id="5TQuwyumRw6ZRlAPxjWT-76" value="" style="endArrow=classic;dashed=1;html=1;rounded=0;strokeColor=#FF00FF;endFill=1;exitX=0.5;exitY=1;exitDx=0;exitDy=0;strokeWidth=2;" parent="1" source="5TQuwyumRw6ZRlAPxjWT-73" edge="1">
          <mxGeometry width="50" height="50" relative="1" as="geometry">
            <mxPoint x="600" y="210" as="sourcePoint" />
            <mxPoint x="950" y="330" as="targetPoint" />
            <Array as="points">
              <mxPoint x="560" y="330" />
              <mxPoint x="710" y="330" />
            </Array>
          </mxGeometry>
        </mxCell>
        <mxCell id="5TQuwyumRw6ZRlAPxjWT-77" value="&lt;font style=&quot;font-size: 10px;&quot;&gt;CompSel&lt;br&gt;&lt;/font&gt;" style="text;html=1;strokeColor=none;fillColor=none;align=center;verticalAlign=middle;whiteSpace=wrap;rounded=0;" parent="1" vertex="1">
          <mxGeometry x="570" y="70" width="50" height="20" as="geometry" />
        </mxCell>
        <mxCell id="5TQuwyumRw6ZRlAPxjWT-78" value="" style="endArrow=classic;dashed=1;html=1;rounded=0;strokeColor=#FF00FF;endFill=1;exitX=0.5;exitY=0;exitDx=0;exitDy=0;strokeWidth=2;" parent="1" source="5TQuwyumRw6ZRlAPxjWT-77" edge="1">
          <mxGeometry width="50" height="50" relative="1" as="geometry">
            <mxPoint x="593.5" y="70" as="sourcePoint" />
            <mxPoint x="595" y="30" as="targetPoint" />
          </mxGeometry>
        </mxCell>
        <mxCell id="5TQuwyumRw6ZRlAPxjWT-79" value="&lt;font style=&quot;font-size: 10px;&quot;&gt;EXTSel&lt;br&gt;&lt;/font&gt;" style="text;html=1;strokeColor=none;fillColor=none;align=center;verticalAlign=middle;whiteSpace=wrap;rounded=0;" parent="1" vertex="1">
          <mxGeometry x="620" y="70" width="40" height="20" as="geometry" />
        </mxCell>
        <mxCell id="5TQuwyumRw6ZRlAPxjWT-80" value="" style="endArrow=classic;dashed=1;html=1;rounded=0;strokeColor=#FF00FF;endFill=1;exitX=0.5;exitY=0;exitDx=0;exitDy=0;strokeWidth=2;" parent="1" source="5TQuwyumRw6ZRlAPxjWT-79" edge="1">
          <mxGeometry width="50" height="50" relative="1" as="geometry">
            <mxPoint x="653.12" y="50" as="sourcePoint" />
            <mxPoint x="640" y="30" as="targetPoint" />
          </mxGeometry>
        </mxCell>
        <mxCell id="5TQuwyumRw6ZRlAPxjWT-81" value="&lt;font style=&quot;font-size: 10px;&quot;&gt;NPCSel&lt;br&gt;&lt;/font&gt;" style="text;html=1;strokeColor=none;fillColor=none;align=center;verticalAlign=middle;whiteSpace=wrap;rounded=0;" parent="1" vertex="1">
          <mxGeometry x="660" y="70" width="40" height="20" as="geometry" />
        </mxCell>
        <mxCell id="5TQuwyumRw6ZRlAPxjWT-82" value="" style="endArrow=classic;dashed=1;html=1;rounded=0;strokeColor=#FF00FF;endFill=1;exitX=0.5;exitY=0;exitDx=0;exitDy=0;strokeWidth=2;" parent="1" source="5TQuwyumRw6ZRlAPxjWT-81" edge="1">
          <mxGeometry width="50" height="50" relative="1" as="geometry">
            <mxPoint x="693.5" y="60" as="sourcePoint" />
            <mxPoint x="680" y="30" as="targetPoint" />
          </mxGeometry>
        </mxCell>
        <mxCell id="5TQuwyumRw6ZRlAPxjWT-83" value="&lt;font style=&quot;font-size: 10px;&quot;&gt;OPSel&lt;br&gt;&lt;/font&gt;" style="text;html=1;strokeColor=none;fillColor=none;align=center;verticalAlign=middle;whiteSpace=wrap;rounded=0;" parent="1" vertex="1">
          <mxGeometry x="600" y="170" width="40" height="20" as="geometry" />
        </mxCell>
        <mxCell id="5TQuwyumRw6ZRlAPxjWT-84" value="&lt;font style=&quot;font-size: 10px;&quot;&gt;DMSel&lt;br&gt;&lt;/font&gt;" style="text;html=1;strokeColor=none;fillColor=none;align=center;verticalAlign=middle;whiteSpace=wrap;rounded=0;" parent="1" vertex="1">
          <mxGeometry x="680" y="170" width="40" height="20" as="geometry" />
        </mxCell>
        <mxCell id="5TQuwyumRw6ZRlAPxjWT-86" value="&lt;font style=&quot;font-size: 10px;&quot;&gt;Tuse_rs&lt;/font&gt;" style="text;html=1;strokeColor=none;fillColor=none;align=center;verticalAlign=middle;whiteSpace=wrap;rounded=0;" parent="1" vertex="1">
          <mxGeometry x="787" y="100" width="40" height="20" as="geometry" />
        </mxCell>
        <mxCell id="5TQuwyumRw6ZRlAPxjWT-87" value="" style="endArrow=classic;dashed=1;html=1;rounded=0;strokeColor=#FF00FF;endFill=1;exitX=1;exitY=0.5;exitDx=0;exitDy=0;strokeWidth=2;" parent="1" source="5TQuwyumRw6ZRlAPxjWT-86" edge="1">
          <mxGeometry width="50" height="50" relative="1" as="geometry">
            <mxPoint x="767" y="109.89" as="sourcePoint" />
            <mxPoint x="880" y="110" as="targetPoint" />
          </mxGeometry>
        </mxCell>
        <mxCell id="5TQuwyumRw6ZRlAPxjWT-88" value="" style="endArrow=classic;dashed=1;html=1;rounded=0;strokeColor=#FF00FF;endFill=1;exitX=0.5;exitY=1;exitDx=0;exitDy=0;strokeWidth=2;" parent="1" source="5TQuwyumRw6ZRlAPxjWT-83" edge="1">
          <mxGeometry width="50" height="50" relative="1" as="geometry">
            <mxPoint x="637" y="230" as="sourcePoint" />
            <mxPoint x="950" y="310" as="targetPoint" />
            <Array as="points">
              <mxPoint x="620" y="310" />
            </Array>
          </mxGeometry>
        </mxCell>
        <mxCell id="5TQuwyumRw6ZRlAPxjWT-90" value="" style="endArrow=classic;dashed=1;html=1;rounded=0;strokeColor=#FF00FF;endFill=1;exitX=0.5;exitY=1;exitDx=0;exitDy=0;strokeWidth=2;" parent="1" source="5TQuwyumRw6ZRlAPxjWT-84" edge="1">
          <mxGeometry width="50" height="50" relative="1" as="geometry">
            <mxPoint x="640" y="220" as="sourcePoint" />
            <mxPoint x="950" y="270" as="targetPoint" />
            <Array as="points">
              <mxPoint x="700" y="270" />
            </Array>
          </mxGeometry>
        </mxCell>
        <mxCell id="5TQuwyumRw6ZRlAPxjWT-103" value="&lt;font style=&quot;font-size: 10px;&quot;&gt;funct&lt;br&gt;&lt;/font&gt;" style="text;html=1;strokeColor=none;fillColor=none;align=center;verticalAlign=middle;whiteSpace=wrap;rounded=0;" parent="1" vertex="1">
          <mxGeometry x="470" y="120" width="30" height="20" as="geometry" />
        </mxCell>
        <mxCell id="5TQuwyumRw6ZRlAPxjWT-104" value="&lt;font style=&quot;font-size: 10px;&quot;&gt;opcode&lt;br&gt;&lt;/font&gt;" style="text;html=1;strokeColor=none;fillColor=none;align=center;verticalAlign=middle;whiteSpace=wrap;rounded=0;" parent="1" vertex="1">
          <mxGeometry x="470" y="100" width="40" height="20" as="geometry" />
        </mxCell>
        <mxCell id="y1xQ33muBoSTJrlKvMSJ-22" style="edgeStyle=orthogonalEdgeStyle;rounded=0;orthogonalLoop=1;jettySize=auto;html=1;exitX=0;exitY=0.5;exitDx=0;exitDy=0;entryX=0;entryY=0.5;entryDx=0;entryDy=0;" parent="1" source="y1xQ33muBoSTJrlKvMSJ-25" target="y1xQ33muBoSTJrlKvMSJ-12" edge="1">
          <mxGeometry relative="1" as="geometry">
            <mxPoint x="20" y="450" as="targetPoint" />
            <Array as="points">
              <mxPoint x="50" y="565" />
              <mxPoint x="50" y="450" />
            </Array>
          </mxGeometry>
        </mxCell>
        <mxCell id="y1xQ33muBoSTJrlKvMSJ-87" style="edgeStyle=orthogonalEdgeStyle;rounded=0;orthogonalLoop=1;jettySize=auto;html=1;exitX=1;exitY=0.5;exitDx=0;exitDy=0;" parent="1" source="y1xQ33muBoSTJrlKvMSJ-123" edge="1">
          <mxGeometry relative="1" as="geometry">
            <mxPoint x="950" y="650" as="targetPoint" />
            <Array as="points">
              <mxPoint x="850" y="650" />
            </Array>
          </mxGeometry>
        </mxCell>
        <mxCell id="5TQuwyumRw6ZRlAPxjWT-108" value="" style="endArrow=classic;html=1;rounded=0;entryX=0.5;entryY=0;entryDx=0;entryDy=0;" parent="1" target="y1xQ33muBoSTJrlKvMSJ-47" edge="1">
          <mxGeometry width="50" height="50" relative="1" as="geometry">
            <mxPoint x="260" y="450" as="sourcePoint" />
            <mxPoint x="310" y="400" as="targetPoint" />
          </mxGeometry>
        </mxCell>
        <mxCell id="5TQuwyumRw6ZRlAPxjWT-111" value="" style="triangle;whiteSpace=wrap;html=1;direction=east;fillColor=#6a00ff;fontColor=#ffffff;strokeColor=#3700CC;" parent="1" vertex="1">
          <mxGeometry x="40" y="590" width="10" height="10" as="geometry" />
        </mxCell>
        <mxCell id="5TQuwyumRw6ZRlAPxjWT-112" value="&lt;font&gt;EN&lt;/font&gt;" style="text;html=1;strokeColor=none;fillColor=none;align=center;verticalAlign=middle;whiteSpace=wrap;rounded=0;fontColor=#006600;" parent="1" vertex="1">
          <mxGeometry x="70" y="470" width="20" height="10" as="geometry" />
        </mxCell>
        <mxCell id="5TQuwyumRw6ZRlAPxjWT-115" value="&lt;font color=&quot;#ff3333&quot; style=&quot;font-size: 12px;&quot;&gt;0&lt;/font&gt;" style="text;html=1;strokeColor=none;fillColor=none;align=center;verticalAlign=middle;whiteSpace=wrap;rounded=0;fontColor=#00CC00;" parent="1" vertex="1">
          <mxGeometry x="40" y="610" width="10" height="10" as="geometry" />
        </mxCell>
        <mxCell id="5TQuwyumRw6ZRlAPxjWT-116" value="&lt;font&gt;EN&lt;/font&gt;" style="text;html=1;strokeColor=none;fillColor=none;align=center;verticalAlign=middle;whiteSpace=wrap;rounded=0;fontColor=#006600;" parent="1" vertex="1">
          <mxGeometry x="40" y="570" width="20" height="10" as="geometry" />
        </mxCell>
        <mxCell id="5TQuwyumRw6ZRlAPxjWT-117" value="" style="endArrow=classic;html=1;rounded=0;entryX=0;entryY=0.5;entryDx=0;entryDy=0;strokeColor=#006600;dashed=1;exitX=0;exitY=0.5;exitDx=0;exitDy=0;strokeWidth=2;" parent="1" source="5TQuwyumRw6ZRlAPxjWT-142" target="5TQuwyumRw6ZRlAPxjWT-116" edge="1">
          <mxGeometry width="50" height="50" relative="1" as="geometry">
            <mxPoint x="130" y="850" as="sourcePoint" />
            <mxPoint y="570" as="targetPoint" />
            <Array as="points">
              <mxPoint x="20" y="860" />
              <mxPoint x="20" y="575" />
            </Array>
          </mxGeometry>
        </mxCell>
        <mxCell id="5TQuwyumRw6ZRlAPxjWT-118" value="&lt;font&gt;EN&lt;/font&gt;" style="text;html=1;strokeColor=none;fillColor=none;align=center;verticalAlign=middle;whiteSpace=wrap;rounded=0;fontColor=#006600;" parent="1" vertex="1">
          <mxGeometry x="240" y="730" width="20" height="10" as="geometry" />
        </mxCell>
        <mxCell id="5TQuwyumRw6ZRlAPxjWT-119" value="" style="endArrow=classic;html=1;rounded=0;entryX=0.5;entryY=1;entryDx=0;entryDy=0;strokeColor=#006600;dashed=1;exitX=0.5;exitY=0;exitDx=0;exitDy=0;strokeWidth=2;" parent="1" source="5TQuwyumRw6ZRlAPxjWT-143" target="5TQuwyumRw6ZRlAPxjWT-118" edge="1">
          <mxGeometry width="50" height="50" relative="1" as="geometry">
            <mxPoint x="250" y="810" as="sourcePoint" />
            <mxPoint x="200" y="690" as="targetPoint" />
            <Array as="points" />
          </mxGeometry>
        </mxCell>
        <mxCell id="5TQuwyumRw6ZRlAPxjWT-120" value="" style="endArrow=classic;html=1;rounded=0;entryX=0.5;entryY=1;entryDx=0;entryDy=0;strokeColor=#006600;dashed=1;exitX=1;exitY=0.5;exitDx=0;exitDy=0;strokeWidth=2;" parent="1" source="5TQuwyumRw6ZRlAPxjWT-144" target="5TQuwyumRw6ZRlAPxjWT-31" edge="1">
          <mxGeometry width="50" height="50" relative="1" as="geometry">
            <mxPoint x="330" y="800" as="sourcePoint" />
            <mxPoint x="839.86" y="740" as="targetPoint" />
            <Array as="points">
              <mxPoint x="940" y="860" />
            </Array>
          </mxGeometry>
        </mxCell>
        <mxCell id="5TQuwyumRw6ZRlAPxjWT-121" value="&lt;font color=&quot;#b266ff&quot; style=&quot;font-size: 16px;&quot;&gt;CTRL_Stall&lt;/font&gt;" style="rhombus;whiteSpace=wrap;html=1;" parent="1" vertex="1">
          <mxGeometry x="60" y="820" width="380" height="200" as="geometry" />
        </mxCell>
        <mxCell id="5TQuwyumRw6ZRlAPxjWT-122" value="&lt;font style=&quot;font-size: 10px;&quot;&gt;Tuse_rs&lt;/font&gt;" style="text;html=1;strokeColor=none;fillColor=none;align=center;verticalAlign=middle;whiteSpace=wrap;rounded=0;" parent="1" vertex="1">
          <mxGeometry x="110" y="890" width="40" height="20" as="geometry" />
        </mxCell>
        <mxCell id="5TQuwyumRw6ZRlAPxjWT-123" value="" style="endArrow=classic;dashed=1;html=1;rounded=0;entryX=0;entryY=0.5;entryDx=0;entryDy=0;strokeColor=#FF00FF;endFill=1;strokeWidth=2;" parent="1" target="5TQuwyumRw6ZRlAPxjWT-122" edge="1">
          <mxGeometry width="50" height="50" relative="1" as="geometry">
            <mxPoint x="40" y="900" as="sourcePoint" />
            <mxPoint x="162.37" y="870" as="targetPoint" />
            <Array as="points" />
          </mxGeometry>
        </mxCell>
        <mxCell id="5TQuwyumRw6ZRlAPxjWT-125" value="&lt;font style=&quot;font-size: 10px;&quot;&gt;Tuse_rt&lt;/font&gt;" style="text;html=1;strokeColor=none;fillColor=none;align=center;verticalAlign=middle;whiteSpace=wrap;rounded=0;" parent="1" vertex="1">
          <mxGeometry x="787" y="120" width="40" height="20" as="geometry" />
        </mxCell>
        <mxCell id="5TQuwyumRw6ZRlAPxjWT-126" value="" style="endArrow=classic;dashed=1;html=1;rounded=0;strokeColor=#FF00FF;endFill=1;exitX=1;exitY=0.5;exitDx=0;exitDy=0;strokeWidth=2;" parent="1" source="5TQuwyumRw6ZRlAPxjWT-125" edge="1">
          <mxGeometry width="50" height="50" relative="1" as="geometry">
            <mxPoint x="770" y="120" as="sourcePoint" />
            <mxPoint x="880" y="130" as="targetPoint" />
          </mxGeometry>
        </mxCell>
        <mxCell id="5TQuwyumRw6ZRlAPxjWT-127" value="&lt;font style=&quot;font-size: 10px;&quot;&gt;Tuse_rt&lt;/font&gt;" style="text;html=1;strokeColor=none;fillColor=none;align=center;verticalAlign=middle;whiteSpace=wrap;rounded=0;" parent="1" vertex="1">
          <mxGeometry x="70" y="910" width="40" height="20" as="geometry" />
        </mxCell>
        <mxCell id="5TQuwyumRw6ZRlAPxjWT-128" value="" style="endArrow=classic;dashed=1;html=1;rounded=0;entryX=0;entryY=0.5;entryDx=0;entryDy=0;strokeColor=#FF00FF;endFill=1;strokeWidth=2;" parent="1" target="5TQuwyumRw6ZRlAPxjWT-127" edge="1">
          <mxGeometry width="50" height="50" relative="1" as="geometry">
            <mxPoint x="40" y="920" as="sourcePoint" />
            <mxPoint x="187.5" y="899.88" as="targetPoint" />
            <Array as="points" />
          </mxGeometry>
        </mxCell>
        <mxCell id="5TQuwyumRw6ZRlAPxjWT-129" value="" style="endArrow=classic;html=1;rounded=0;entryX=1;entryY=0.5;entryDx=0;entryDy=0;strokeColor=#006600;strokeWidth=2;" parent="1" target="5TQuwyumRw6ZRlAPxjWT-130" edge="1">
          <mxGeometry width="50" height="50" relative="1" as="geometry">
            <mxPoint x="980" y="580" as="sourcePoint" />
            <mxPoint x="620" y="940" as="targetPoint" />
            <Array as="points">
              <mxPoint x="980" y="960" />
            </Array>
          </mxGeometry>
        </mxCell>
        <mxCell id="5TQuwyumRw6ZRlAPxjWT-130" value="&lt;font style=&quot;font-size: 10px;&quot;&gt;GRF_A3_E&lt;/font&gt;" style="text;html=1;strokeColor=none;fillColor=none;align=center;verticalAlign=middle;whiteSpace=wrap;rounded=0;" parent="1" vertex="1">
          <mxGeometry x="300" y="950" width="60" height="20" as="geometry" />
        </mxCell>
        <mxCell id="5TQuwyumRw6ZRlAPxjWT-131" value="&lt;font style=&quot;font-size: 10px;&quot;&gt;GRF_A3_M&lt;/font&gt;" style="text;html=1;strokeColor=none;fillColor=none;align=center;verticalAlign=middle;whiteSpace=wrap;rounded=0;" parent="1" vertex="1">
          <mxGeometry x="260" y="970" width="60" height="20" as="geometry" />
        </mxCell>
        <mxCell id="5TQuwyumRw6ZRlAPxjWT-133" value="" style="endArrow=classic;html=1;rounded=0;entryX=1;entryY=0.5;entryDx=0;entryDy=0;strokeColor=#006600;strokeWidth=2;" parent="1" target="5TQuwyumRw6ZRlAPxjWT-131" edge="1">
          <mxGeometry width="50" height="50" relative="1" as="geometry">
            <mxPoint x="1490" y="580" as="sourcePoint" />
            <mxPoint x="510" y="940" as="targetPoint" />
            <Array as="points">
              <mxPoint x="1490" y="980" />
            </Array>
          </mxGeometry>
        </mxCell>
        <mxCell id="5TQuwyumRw6ZRlAPxjWT-138" value="" style="endArrow=classic;html=1;rounded=0;strokeColor=#006600;entryX=1;entryY=0.5;entryDx=0;entryDy=0;strokeWidth=2;" parent="1" target="5TQuwyumRw6ZRlAPxjWT-281" edge="1">
          <mxGeometry width="50" height="50" relative="1" as="geometry">
            <mxPoint x="970" y="330" as="sourcePoint" />
            <mxPoint x="340" y="880" as="targetPoint" />
            <Array as="points">
              <mxPoint x="970" y="920" />
            </Array>
          </mxGeometry>
        </mxCell>
        <mxCell id="5TQuwyumRw6ZRlAPxjWT-141" value="" style="endArrow=classic;html=1;rounded=0;strokeColor=#006600;entryX=1;entryY=0.5;entryDx=0;entryDy=0;strokeWidth=2;" parent="1" target="5TQuwyumRw6ZRlAPxjWT-278" edge="1">
          <mxGeometry width="50" height="50" relative="1" as="geometry">
            <mxPoint x="1480" y="330" as="sourcePoint" />
            <mxPoint x="370" y="900" as="targetPoint" />
            <Array as="points">
              <mxPoint x="1480" y="940" />
            </Array>
          </mxGeometry>
        </mxCell>
        <mxCell id="5TQuwyumRw6ZRlAPxjWT-142" value="IFU_EN_N" style="text;html=1;strokeColor=none;fillColor=none;align=center;verticalAlign=middle;whiteSpace=wrap;rounded=0;fontSize=10;" parent="1" vertex="1">
          <mxGeometry x="180" y="850" width="60" height="20" as="geometry" />
        </mxCell>
        <mxCell id="5TQuwyumRw6ZRlAPxjWT-143" value="FR_D_EN_N" style="text;html=1;strokeColor=none;fillColor=none;align=center;verticalAlign=middle;whiteSpace=wrap;rounded=0;fontSize=10;" parent="1" vertex="1">
          <mxGeometry x="220" y="840" width="60" height="10" as="geometry" />
        </mxCell>
        <mxCell id="5TQuwyumRw6ZRlAPxjWT-144" value="&lt;font style=&quot;font-size: 10px;&quot;&gt;FR_E_RESET&lt;/font&gt;" style="text;html=1;strokeColor=none;fillColor=none;align=center;verticalAlign=middle;whiteSpace=wrap;rounded=0;fontSize=10;" parent="1" vertex="1">
          <mxGeometry x="250" y="850" width="70" height="20" as="geometry" />
        </mxCell>
        <mxCell id="5TQuwyumRw6ZRlAPxjWT-146" value="&lt;font style=&quot;font-size: 10px;&quot;&gt;FuncSel&lt;br&gt;&lt;/font&gt;" style="text;html=1;strokeColor=none;fillColor=none;align=center;verticalAlign=middle;whiteSpace=wrap;rounded=0;" parent="1" vertex="1">
          <mxGeometry x="640" y="170" width="40" height="20" as="geometry" />
        </mxCell>
        <mxCell id="5TQuwyumRw6ZRlAPxjWT-149" value="" style="endArrow=classic;dashed=1;html=1;rounded=0;strokeColor=#FF00FF;endFill=1;exitX=0.5;exitY=1;exitDx=0;exitDy=0;strokeWidth=2;" parent="1" source="5TQuwyumRw6ZRlAPxjWT-146" edge="1">
          <mxGeometry width="50" height="50" relative="1" as="geometry">
            <mxPoint x="660" y="200" as="sourcePoint" />
            <mxPoint x="950" y="290" as="targetPoint" />
            <Array as="points">
              <mxPoint x="660" y="290" />
            </Array>
          </mxGeometry>
        </mxCell>
        <mxCell id="5TQuwyumRw6ZRlAPxjWT-150" value="&lt;font style=&quot;font-size: 10px;&quot;&gt;rt&lt;/font&gt;" style="text;html=1;strokeColor=none;fillColor=none;align=center;verticalAlign=middle;whiteSpace=wrap;rounded=0;" parent="1" vertex="1">
          <mxGeometry x="470" y="140" width="20" height="20" as="geometry" />
        </mxCell>
        <mxCell id="5TQuwyumRw6ZRlAPxjWT-151" value="" style="endArrow=classic;html=1;rounded=0;fontFamily=Helvetica;fontSize=12;fontColor=default;strokeColor=#00CCCC;strokeWidth=2;" parent="1" edge="1">
          <mxGeometry width="50" height="50" relative="1" as="geometry">
            <mxPoint x="1000" y="650" as="sourcePoint" />
            <mxPoint x="700" y="420" as="targetPoint" />
            <Array as="points">
              <mxPoint x="1000" y="800" />
              <mxPoint x="640" y="800" />
              <mxPoint x="640" y="420" />
              <mxPoint x="670" y="420" />
            </Array>
          </mxGeometry>
        </mxCell>
        <mxCell id="5TQuwyumRw6ZRlAPxjWT-154" value="" style="endArrow=classic;html=1;rounded=0;fontFamily=Helvetica;fontSize=12;fontColor=default;strokeWidth=2;strokeColor=#00CCCC;" parent="1" edge="1">
          <mxGeometry width="50" height="50" relative="1" as="geometry">
            <mxPoint x="1010" y="710" as="sourcePoint" />
            <mxPoint x="700" y="430" as="targetPoint" />
            <Array as="points">
              <mxPoint x="1010" y="810" />
              <mxPoint x="650" y="810" />
              <mxPoint x="650" y="430" />
            </Array>
          </mxGeometry>
        </mxCell>
        <mxCell id="5TQuwyumRw6ZRlAPxjWT-156" value="" style="endArrow=classic;html=1;rounded=0;fontFamily=Helvetica;fontSize=12;fontColor=default;strokeColor=#00CCCC;strokeWidth=2;" parent="1" edge="1">
          <mxGeometry width="50" height="50" relative="1" as="geometry">
            <mxPoint x="1510" y="450" as="sourcePoint" />
            <mxPoint x="700" y="390" as="targetPoint" />
            <Array as="points">
              <mxPoint x="1510" y="820" />
              <mxPoint x="1210" y="820" />
              <mxPoint x="660" y="820" />
              <mxPoint x="660" y="390" />
            </Array>
          </mxGeometry>
        </mxCell>
        <mxCell id="5TQuwyumRw6ZRlAPxjWT-157" value="" style="endArrow=classic;html=1;rounded=0;fontFamily=Helvetica;fontSize=12;fontColor=default;strokeWidth=2;strokeColor=#00CCCC;" parent="1" edge="1">
          <mxGeometry width="50" height="50" relative="1" as="geometry">
            <mxPoint x="1520" y="650" as="sourcePoint" />
            <mxPoint x="700" y="400" as="targetPoint" />
            <Array as="points">
              <mxPoint x="1520" y="830" />
              <mxPoint x="670" y="830" />
              <mxPoint x="670" y="400" />
            </Array>
          </mxGeometry>
        </mxCell>
        <mxCell id="5TQuwyumRw6ZRlAPxjWT-158" value="" style="endArrow=classic;html=1;rounded=0;fontFamily=Helvetica;fontSize=12;fontColor=default;strokeWidth=2;strokeColor=#00CCCC;" parent="1" edge="1">
          <mxGeometry width="50" height="50" relative="1" as="geometry">
            <mxPoint x="1530" y="710" as="sourcePoint" />
            <mxPoint x="700" y="410" as="targetPoint" />
            <Array as="points">
              <mxPoint x="1530" y="840" />
              <mxPoint x="680" y="840" />
              <mxPoint x="680" y="410" />
            </Array>
          </mxGeometry>
        </mxCell>
        <mxCell id="5TQuwyumRw6ZRlAPxjWT-159" value="&lt;font color=&quot;#b266ff&quot; style=&quot;font-size: 16px;&quot;&gt;CTRL_&lt;br&gt;Forward&lt;/font&gt;" style="shape=parallelogram;perimeter=parallelogramPerimeter;whiteSpace=wrap;html=1;fixedSize=1;rounded=0;strokeColor=default;align=center;verticalAlign=middle;fontFamily=Helvetica;fontSize=12;fontColor=default;fillColor=default;" parent="1" vertex="1">
          <mxGeometry x="310" y="1040" width="410" height="100" as="geometry" />
        </mxCell>
        <mxCell id="5TQuwyumRw6ZRlAPxjWT-171" style="edgeStyle=orthogonalEdgeStyle;rounded=0;orthogonalLoop=1;jettySize=auto;html=1;exitX=0.5;exitY=0;exitDx=0;exitDy=0;fontFamily=Helvetica;fontSize=12;fontColor=default;" parent="1" edge="1">
          <mxGeometry relative="1" as="geometry">
            <mxPoint x="950" y="380" as="targetPoint" />
            <Array as="points">
              <mxPoint x="800" y="405" />
              <mxPoint x="800" y="380" />
              <mxPoint x="950" y="380" />
            </Array>
            <mxPoint x="790" y="405" as="sourcePoint" />
          </mxGeometry>
        </mxCell>
        <mxCell id="5TQuwyumRw6ZRlAPxjWT-161" value="" style="endArrow=classic;html=1;rounded=0;fontFamily=Helvetica;fontSize=12;fontColor=default;strokeWidth=2;strokeColor=#00CCCC;" parent="1" edge="1">
          <mxGeometry width="50" height="50" relative="1" as="geometry">
            <mxPoint x="660" y="470" as="sourcePoint" />
            <mxPoint x="700" y="470" as="targetPoint" />
          </mxGeometry>
        </mxCell>
        <mxCell id="5TQuwyumRw6ZRlAPxjWT-162" value="" style="endArrow=classic;html=1;rounded=0;fontFamily=Helvetica;fontSize=12;fontColor=default;strokeWidth=2;strokeColor=#00CCCC;" parent="1" edge="1">
          <mxGeometry width="50" height="50" relative="1" as="geometry">
            <mxPoint x="670" y="480" as="sourcePoint" />
            <mxPoint x="700" y="480" as="targetPoint" />
          </mxGeometry>
        </mxCell>
        <mxCell id="5TQuwyumRw6ZRlAPxjWT-163" value="" style="endArrow=classic;html=1;rounded=0;fontFamily=Helvetica;fontSize=12;fontColor=default;strokeWidth=2;strokeColor=#00CCCC;" parent="1" edge="1">
          <mxGeometry width="50" height="50" relative="1" as="geometry">
            <mxPoint x="680" y="490" as="sourcePoint" />
            <mxPoint x="700" y="490" as="targetPoint" />
          </mxGeometry>
        </mxCell>
        <mxCell id="5TQuwyumRw6ZRlAPxjWT-164" value="" style="endArrow=classic;html=1;rounded=0;fontFamily=Helvetica;fontSize=12;fontColor=default;strokeWidth=2;strokeColor=#00CCCC;" parent="1" edge="1">
          <mxGeometry width="50" height="50" relative="1" as="geometry">
            <mxPoint x="640" y="500" as="sourcePoint" />
            <mxPoint x="700" y="500" as="targetPoint" />
          </mxGeometry>
        </mxCell>
        <mxCell id="5TQuwyumRw6ZRlAPxjWT-165" value="" style="endArrow=classic;html=1;rounded=0;fontFamily=Helvetica;fontSize=12;fontColor=default;strokeWidth=2;strokeColor=#00CCCC;" parent="1" edge="1">
          <mxGeometry width="50" height="50" relative="1" as="geometry">
            <mxPoint x="650" y="510" as="sourcePoint" />
            <mxPoint x="700" y="510" as="targetPoint" />
          </mxGeometry>
        </mxCell>
        <mxCell id="5TQuwyumRw6ZRlAPxjWT-173" style="edgeStyle=orthogonalEdgeStyle;rounded=0;orthogonalLoop=1;jettySize=auto;html=1;fontFamily=Helvetica;fontSize=12;fontColor=default;exitX=0.5;exitY=0;exitDx=0;exitDy=0;" parent="1" source="5TQuwyumRw6ZRlAPxjWT-166" edge="1">
          <mxGeometry relative="1" as="geometry">
            <mxPoint x="950" y="510" as="targetPoint" />
            <mxPoint x="800" y="485" as="sourcePoint" />
            <Array as="points">
              <mxPoint x="800" y="485" />
              <mxPoint x="800" y="510" />
              <mxPoint x="950" y="510" />
            </Array>
          </mxGeometry>
        </mxCell>
        <mxCell id="5TQuwyumRw6ZRlAPxjWT-166" value="&lt;font color=&quot;#0066cc&quot; style=&quot;font-size: 14px;&quot;&gt;FMUX_V2_D&lt;/font&gt;" style="shape=trapezoid;perimeter=trapezoidPerimeter;whiteSpace=wrap;html=1;fixedSize=1;rounded=0;strokeColor=default;align=center;verticalAlign=middle;fontFamily=Helvetica;fontSize=12;fontColor=default;fillColor=default;direction=south;" parent="1" vertex="1">
          <mxGeometry x="700" y="450" width="90" height="70" as="geometry" />
        </mxCell>
        <mxCell id="5TQuwyumRw6ZRlAPxjWT-167" value="" style="endArrow=classic;html=1;rounded=0;fontFamily=Helvetica;fontSize=12;fontColor=default;strokeWidth=2;strokeColor=#0066CC;dashed=1;exitX=1;exitY=0.5;exitDx=0;exitDy=0;" parent="1" source="5TQuwyumRw6ZRlAPxjWT-254" edge="1">
          <mxGeometry width="50" height="50" relative="1" as="geometry">
            <mxPoint x="750" y="1140" as="sourcePoint" />
            <mxPoint x="759.74" y="420" as="targetPoint" />
            <Array as="points">
              <mxPoint x="760" y="1050" />
            </Array>
          </mxGeometry>
        </mxCell>
        <mxCell id="5TQuwyumRw6ZRlAPxjWT-168" value="" style="endArrow=classic;html=1;rounded=0;fontFamily=Helvetica;fontSize=12;fontColor=default;strokeWidth=2;strokeColor=#0066CC;dashed=1;exitX=1;exitY=0.5;exitDx=0;exitDy=0;" parent="1" source="5TQuwyumRw6ZRlAPxjWT-255" edge="1">
          <mxGeometry width="50" height="50" relative="1" as="geometry">
            <mxPoint x="760" y="1110" as="sourcePoint" />
            <mxPoint x="779.87" y="500" as="targetPoint" />
            <Array as="points">
              <mxPoint x="780" y="1070" />
            </Array>
          </mxGeometry>
        </mxCell>
        <mxCell id="5TQuwyumRw6ZRlAPxjWT-169" value="" style="endArrow=classic;dashed=1;html=1;rounded=0;strokeColor=#FF00FF;endFill=1;strokeWidth=2;entryX=0.75;entryY=0;entryDx=0;entryDy=0;" parent="1" target="y1xQ33muBoSTJrlKvMSJ-82" edge="1">
          <mxGeometry width="50" height="50" relative="1" as="geometry">
            <mxPoint x="630" y="596" as="sourcePoint" />
            <mxPoint x="620" y="680" as="targetPoint" />
            <Array as="points" />
          </mxGeometry>
        </mxCell>
        <mxCell id="5TQuwyumRw6ZRlAPxjWT-172" value="" style="endArrow=classic;html=1;rounded=0;fontFamily=Helvetica;fontSize=12;fontColor=default;exitX=0.5;exitY=0;exitDx=0;exitDy=0;entryX=0;entryY=0.5;entryDx=0;entryDy=0;" parent="1" target="y1xQ33muBoSTJrlKvMSJ-104" edge="1">
          <mxGeometry width="50" height="50" relative="1" as="geometry">
            <mxPoint x="790" y="405" as="sourcePoint" />
            <mxPoint x="840" y="370" as="targetPoint" />
            <Array as="points">
              <mxPoint x="800" y="405" />
              <mxPoint x="800" y="430" />
            </Array>
          </mxGeometry>
        </mxCell>
        <mxCell id="5TQuwyumRw6ZRlAPxjWT-174" value="" style="endArrow=classic;html=1;rounded=0;fontFamily=Helvetica;fontSize=12;fontColor=default;exitX=0.5;exitY=0;exitDx=0;exitDy=0;entryX=0;entryY=0.5;entryDx=0;entryDy=0;" parent="1" source="5TQuwyumRw6ZRlAPxjWT-166" target="y1xQ33muBoSTJrlKvMSJ-105" edge="1">
          <mxGeometry width="50" height="50" relative="1" as="geometry">
            <mxPoint x="800" y="415" as="sourcePoint" />
            <mxPoint x="830" y="440" as="targetPoint" />
            <Array as="points">
              <mxPoint x="800" y="485" />
              <mxPoint x="800" y="460" />
            </Array>
          </mxGeometry>
        </mxCell>
        <mxCell id="5TQuwyumRw6ZRlAPxjWT-197" value="" style="edgeStyle=orthogonalEdgeStyle;rounded=0;orthogonalLoop=1;jettySize=auto;html=1;fontFamily=Helvetica;fontSize=12;fontColor=default;exitX=0.5;exitY=0;exitDx=0;exitDy=0;entryX=0;entryY=0;entryDx=0;entryDy=0;" parent="1" target="ER48WJ5dUgR68-UzpMZ_-21" edge="1">
          <mxGeometry relative="1" as="geometry">
            <mxPoint x="1250" y="400" as="targetPoint" />
            <mxPoint x="1140" y="400" as="sourcePoint" />
            <Array as="points">
              <mxPoint x="1190" y="400" />
              <mxPoint x="1190" y="400" />
            </Array>
          </mxGeometry>
        </mxCell>
        <mxCell id="5TQuwyumRw6ZRlAPxjWT-182" value="" style="endArrow=classic;html=1;rounded=0;fontFamily=Helvetica;fontSize=12;fontColor=default;strokeWidth=2;strokeColor=#00CCCC;" parent="1" edge="1">
          <mxGeometry width="50" height="50" relative="1" as="geometry">
            <mxPoint x="1020" y="820" as="sourcePoint" />
            <mxPoint x="1050" y="420" as="targetPoint" />
            <Array as="points">
              <mxPoint x="1020" y="420" />
            </Array>
          </mxGeometry>
        </mxCell>
        <mxCell id="5TQuwyumRw6ZRlAPxjWT-185" value="" style="endArrow=classic;html=1;rounded=0;fontFamily=Helvetica;fontSize=12;fontColor=default;strokeWidth=2;strokeColor=#00CCCC;" parent="1" edge="1">
          <mxGeometry width="50" height="50" relative="1" as="geometry">
            <mxPoint x="1890" y="460" as="sourcePoint" />
            <mxPoint x="1050" y="400" as="targetPoint" />
            <Array as="points">
              <mxPoint x="1890" y="850" />
              <mxPoint x="1030" y="850" />
              <mxPoint x="1030" y="400" />
            </Array>
          </mxGeometry>
        </mxCell>
        <mxCell id="5TQuwyumRw6ZRlAPxjWT-187" value="" style="endArrow=classic;html=1;rounded=0;fontFamily=Helvetica;fontSize=12;fontColor=default;strokeWidth=2;strokeColor=#00CCCC;" parent="1" edge="1">
          <mxGeometry width="50" height="50" relative="1" as="geometry">
            <mxPoint x="1030" y="480" as="sourcePoint" />
            <mxPoint x="1050" y="480" as="targetPoint" />
          </mxGeometry>
        </mxCell>
        <mxCell id="5TQuwyumRw6ZRlAPxjWT-190" value="" style="endArrow=classic;html=1;rounded=0;fontFamily=Helvetica;fontSize=12;fontColor=default;strokeWidth=2;strokeColor=#00CCCC;" parent="1" edge="1">
          <mxGeometry width="50" height="50" relative="1" as="geometry">
            <mxPoint x="1020" y="500" as="sourcePoint" />
            <mxPoint x="1050" y="500" as="targetPoint" />
          </mxGeometry>
        </mxCell>
        <mxCell id="5TQuwyumRw6ZRlAPxjWT-198" style="edgeStyle=orthogonalEdgeStyle;rounded=0;orthogonalLoop=1;jettySize=auto;html=1;fontFamily=Helvetica;fontSize=12;fontColor=default;exitX=0.5;exitY=0;exitDx=0;exitDy=0;" parent="1" source="5TQuwyumRw6ZRlAPxjWT-191" edge="1">
          <mxGeometry relative="1" as="geometry">
            <mxPoint x="1200" y="435" as="targetPoint" />
            <Array as="points">
              <mxPoint x="1170" y="480" />
              <mxPoint x="1170" y="435" />
            </Array>
          </mxGeometry>
        </mxCell>
        <mxCell id="5TQuwyumRw6ZRlAPxjWT-191" value="&lt;font color=&quot;#0066cc&quot; style=&quot;font-size: 14px;&quot;&gt;FMUX_V2_E&lt;/font&gt;" style="shape=trapezoid;perimeter=trapezoidPerimeter;whiteSpace=wrap;html=1;fixedSize=1;rounded=0;strokeColor=default;align=center;verticalAlign=middle;fontFamily=Helvetica;fontSize=12;fontColor=default;fillColor=default;direction=south;" parent="1" vertex="1">
          <mxGeometry x="1050" y="450" width="90" height="60" as="geometry" />
        </mxCell>
        <mxCell id="5TQuwyumRw6ZRlAPxjWT-192" value="" style="endArrow=classic;html=1;rounded=0;fontFamily=Helvetica;fontSize=12;fontColor=default;strokeWidth=2;strokeColor=#0066CC;dashed=1;" parent="1" edge="1">
          <mxGeometry width="50" height="50" relative="1" as="geometry">
            <mxPoint x="950" y="600" as="sourcePoint" />
            <mxPoint x="1130" y="490" as="targetPoint" />
            <Array as="points">
              <mxPoint x="1090" y="600" />
              <mxPoint x="1130" y="600" />
            </Array>
          </mxGeometry>
        </mxCell>
        <mxCell id="5TQuwyumRw6ZRlAPxjWT-193" value="" style="endArrow=classic;html=1;rounded=0;fontFamily=Helvetica;fontSize=12;fontColor=default;" parent="1" edge="1">
          <mxGeometry width="50" height="50" relative="1" as="geometry">
            <mxPoint x="950" y="510" as="sourcePoint" />
            <mxPoint x="1050" y="460" as="targetPoint" />
            <Array as="points">
              <mxPoint x="1010" y="510" />
              <mxPoint x="1010" y="460" />
            </Array>
          </mxGeometry>
        </mxCell>
        <mxCell id="5TQuwyumRw6ZRlAPxjWT-195" value="" style="endArrow=classic;html=1;rounded=0;fontFamily=Helvetica;fontSize=12;fontColor=default;strokeWidth=2;strokeColor=#0066CC;dashed=1;" parent="1" edge="1">
          <mxGeometry width="50" height="50" relative="1" as="geometry">
            <mxPoint x="950" y="560" as="sourcePoint" />
            <mxPoint x="1110" y="420" as="targetPoint" />
            <Array as="points">
              <mxPoint x="1110" y="560" />
            </Array>
          </mxGeometry>
        </mxCell>
        <mxCell id="5TQuwyumRw6ZRlAPxjWT-203" value="" style="endArrow=classic;html=1;rounded=0;fontFamily=Helvetica;fontSize=12;fontColor=default;strokeWidth=2;strokeColor=#0066CC;dashed=1;exitX=1;exitY=0.5;exitDx=0;exitDy=0;" parent="1" source="5TQuwyumRw6ZRlAPxjWT-256" edge="1">
          <mxGeometry width="50" height="50" relative="1" as="geometry">
            <mxPoint x="799.57" y="1150" as="sourcePoint" />
            <mxPoint x="950" y="560" as="targetPoint" />
            <Array as="points">
              <mxPoint x="800" y="1090" />
              <mxPoint x="800" y="560" />
            </Array>
          </mxGeometry>
        </mxCell>
        <mxCell id="5TQuwyumRw6ZRlAPxjWT-204" value="" style="endArrow=classic;html=1;rounded=0;fontFamily=Helvetica;fontSize=12;fontColor=default;strokeWidth=2;strokeColor=#0066CC;dashed=1;exitX=1;exitY=0.5;exitDx=0;exitDy=0;" parent="1" source="5TQuwyumRw6ZRlAPxjWT-257" edge="1">
          <mxGeometry width="50" height="50" relative="1" as="geometry">
            <mxPoint x="819.57" y="1210" as="sourcePoint" />
            <mxPoint x="950" y="600" as="targetPoint" />
            <Array as="points">
              <mxPoint x="820" y="1110" />
              <mxPoint x="820" y="600" />
              <mxPoint x="880" y="600" />
            </Array>
          </mxGeometry>
        </mxCell>
        <mxCell id="5TQuwyumRw6ZRlAPxjWT-205" value="" style="endArrow=classic;html=1;rounded=0;fontFamily=Helvetica;fontSize=12;fontColor=default;strokeWidth=2;strokeColor=#0066CC;dashed=1;exitX=1;exitY=0.5;exitDx=0;exitDy=0;" parent="1" source="5TQuwyumRw6ZRlAPxjWT-258" edge="1">
          <mxGeometry width="50" height="50" relative="1" as="geometry">
            <mxPoint x="840" y="1240" as="sourcePoint" />
            <mxPoint x="950" y="630" as="targetPoint" />
            <Array as="points">
              <mxPoint x="840" y="1130" />
              <mxPoint x="840" y="630" />
              <mxPoint x="890.43" y="630" />
            </Array>
          </mxGeometry>
        </mxCell>
        <mxCell id="5TQuwyumRw6ZRlAPxjWT-206" value="" style="endArrow=classic;html=1;rounded=0;fontFamily=Helvetica;fontSize=12;fontColor=default;strokeWidth=2;strokeColor=#0066CC;dashed=1;" parent="1" edge="1">
          <mxGeometry width="50" height="50" relative="1" as="geometry">
            <mxPoint x="950" y="630" as="sourcePoint" />
            <mxPoint x="1460" y="630" as="targetPoint" />
            <Array as="points">
              <mxPoint x="1090" y="630" />
              <mxPoint x="1130" y="630" />
            </Array>
          </mxGeometry>
        </mxCell>
        <mxCell id="5TQuwyumRw6ZRlAPxjWT-208" value="" style="endArrow=classic;dashed=1;html=1;rounded=0;strokeColor=#FF00FF;endFill=1;strokeWidth=2;" parent="1" edge="1">
          <mxGeometry width="50" height="50" relative="1" as="geometry">
            <mxPoint x="950" y="350" as="sourcePoint" />
            <mxPoint x="1230" y="430" as="targetPoint" />
            <Array as="points">
              <mxPoint x="1230" y="350" />
            </Array>
          </mxGeometry>
        </mxCell>
        <mxCell id="5TQuwyumRw6ZRlAPxjWT-211" value="" style="endArrow=classic;dashed=1;html=1;rounded=0;strokeColor=#FF00FF;endFill=1;strokeWidth=2;entryX=1;entryY=0;entryDx=0;entryDy=0;" parent="1" target="5TQuwyumRw6ZRlAPxjWT-240" edge="1">
          <mxGeometry width="50" height="50" relative="1" as="geometry">
            <mxPoint x="950" y="290" as="sourcePoint" />
            <mxPoint x="1340" y="380" as="targetPoint" />
            <Array as="points">
              <mxPoint x="1330" y="290" />
            </Array>
          </mxGeometry>
        </mxCell>
        <mxCell id="5TQuwyumRw6ZRlAPxjWT-213" value="" style="endArrow=classic;dashed=1;html=1;rounded=0;strokeColor=#FF00FF;endFill=1;strokeWidth=2;entryX=0.5;entryY=0;entryDx=0;entryDy=0;" parent="1" target="ER48WJ5dUgR68-UzpMZ_-20" edge="1">
          <mxGeometry width="50" height="50" relative="1" as="geometry">
            <mxPoint x="950" y="310" as="sourcePoint" />
            <mxPoint x="1300" y="380" as="targetPoint" />
            <Array as="points">
              <mxPoint x="1305" y="310" />
            </Array>
          </mxGeometry>
        </mxCell>
        <mxCell id="5TQuwyumRw6ZRlAPxjWT-215" value="" style="endArrow=classic;dashed=1;html=1;rounded=0;strokeColor=#FF00FF;endFill=1;strokeWidth=2;" parent="1" edge="1">
          <mxGeometry width="50" height="50" relative="1" as="geometry">
            <mxPoint x="960" y="230" as="sourcePoint" />
            <mxPoint x="1460" y="230" as="targetPoint" />
          </mxGeometry>
        </mxCell>
        <mxCell id="5TQuwyumRw6ZRlAPxjWT-216" value="" style="endArrow=classic;dashed=1;html=1;rounded=0;strokeColor=#FF00FF;endFill=1;strokeWidth=2;" parent="1" edge="1">
          <mxGeometry width="50" height="50" relative="1" as="geometry">
            <mxPoint x="950" y="250" as="sourcePoint" />
            <mxPoint x="1460" y="250" as="targetPoint" />
          </mxGeometry>
        </mxCell>
        <mxCell id="5TQuwyumRw6ZRlAPxjWT-217" value="" style="endArrow=classic;dashed=1;html=1;rounded=0;strokeColor=#FF00FF;endFill=1;strokeWidth=2;" parent="1" edge="1">
          <mxGeometry width="50" height="50" relative="1" as="geometry">
            <mxPoint x="950" y="270" as="sourcePoint" />
            <mxPoint x="1460" y="270" as="targetPoint" />
          </mxGeometry>
        </mxCell>
        <mxCell id="5TQuwyumRw6ZRlAPxjWT-218" value="" style="endArrow=classic;dashed=1;html=1;rounded=0;strokeColor=#FF00FF;endFill=1;strokeWidth=2;" parent="1" edge="1">
          <mxGeometry width="50" height="50" relative="1" as="geometry">
            <mxPoint x="950" y="329.40999999999997" as="sourcePoint" />
            <mxPoint x="1460" y="330" as="targetPoint" />
          </mxGeometry>
        </mxCell>
        <mxCell id="5TQuwyumRw6ZRlAPxjWT-221" value="" style="endArrow=classic;html=1;rounded=0;fontFamily=Helvetica;fontSize=12;fontColor=default;exitX=0.5;exitY=0;exitDx=0;exitDy=0;" parent="1" source="5TQuwyumRw6ZRlAPxjWT-191" edge="1">
          <mxGeometry width="50" height="50" relative="1" as="geometry">
            <mxPoint x="1160" y="480" as="sourcePoint" />
            <mxPoint x="1460" y="510" as="targetPoint" />
            <Array as="points">
              <mxPoint x="1160" y="480" />
              <mxPoint x="1170" y="480" />
              <mxPoint x="1170" y="510" />
            </Array>
          </mxGeometry>
        </mxCell>
        <mxCell id="5TQuwyumRw6ZRlAPxjWT-224" value="" style="endArrow=classic;html=1;rounded=0;fontFamily=Helvetica;fontSize=12;fontColor=default;strokeWidth=2;strokeColor=#00CCCC;" parent="1" edge="1">
          <mxGeometry width="50" height="50" relative="1" as="geometry">
            <mxPoint x="1540" y="850" as="sourcePoint" />
            <mxPoint x="1560" y="530" as="targetPoint" />
            <Array as="points">
              <mxPoint x="1540" y="530" />
            </Array>
          </mxGeometry>
        </mxCell>
        <mxCell id="5TQuwyumRw6ZRlAPxjWT-226" value="" style="endArrow=classic;html=1;rounded=0;fontFamily=Helvetica;fontSize=12;fontColor=default;strokeWidth=2;strokeColor=#0066CC;dashed=1;" parent="1" edge="1">
          <mxGeometry width="50" height="50" relative="1" as="geometry">
            <mxPoint x="1460" y="630" as="sourcePoint" />
            <mxPoint x="1600" y="540" as="targetPoint" />
            <Array as="points">
              <mxPoint x="1600" y="630" />
            </Array>
          </mxGeometry>
        </mxCell>
        <mxCell id="5TQuwyumRw6ZRlAPxjWT-229" value="" style="endArrow=classic;html=1;rounded=0;exitX=0.5;exitY=0;exitDx=0;exitDy=0;" parent="1" target="y1xQ33muBoSTJrlKvMSJ-141" edge="1">
          <mxGeometry width="50" height="50" relative="1" as="geometry">
            <mxPoint x="1610" y="520" as="sourcePoint" />
            <mxPoint x="1720" y="350" as="targetPoint" />
            <Array as="points" />
          </mxGeometry>
        </mxCell>
        <mxCell id="LJ8jeTjM3cDZCOLipH15-87" style="edgeStyle=orthogonalEdgeStyle;rounded=0;orthogonalLoop=1;jettySize=auto;html=1;exitX=1;exitY=0.5;exitDx=0;exitDy=0;entryX=0;entryY=0.5;entryDx=0;entryDy=0;" parent="1" source="y1xQ33muBoSTJrlKvMSJ-141" target="LJ8jeTjM3cDZCOLipH15-86" edge="1">
          <mxGeometry relative="1" as="geometry" />
        </mxCell>
        <mxCell id="y1xQ33muBoSTJrlKvMSJ-141" value="D" style="text;html=1;strokeColor=none;fillColor=none;align=center;verticalAlign=middle;whiteSpace=wrap;rounded=0;" parent="1" vertex="1">
          <mxGeometry x="1630" y="510" width="20" height="20" as="geometry" />
        </mxCell>
        <mxCell id="5TQuwyumRw6ZRlAPxjWT-233" value="" style="endArrow=classic;dashed=1;html=1;rounded=0;strokeColor=#FF00FF;endFill=1;strokeWidth=2;entryX=0.5;entryY=0;entryDx=0;entryDy=0;" parent="1" target="5TQuwyumRw6ZRlAPxjWT-241" edge="1">
          <mxGeometry width="50" height="50" relative="1" as="geometry">
            <mxPoint x="1460" y="230" as="sourcePoint" />
            <mxPoint x="1670" y="420" as="targetPoint" />
            <Array as="points">
              <mxPoint x="1730" y="230" />
            </Array>
          </mxGeometry>
        </mxCell>
        <mxCell id="5TQuwyumRw6ZRlAPxjWT-235" value="" style="endArrow=classic;dashed=1;html=1;rounded=0;strokeColor=#FF00FF;endFill=1;strokeWidth=2;" parent="1" edge="1">
          <mxGeometry width="50" height="50" relative="1" as="geometry">
            <mxPoint x="1460" y="250" as="sourcePoint" />
            <mxPoint x="1880" y="250" as="targetPoint" />
          </mxGeometry>
        </mxCell>
        <mxCell id="5TQuwyumRw6ZRlAPxjWT-236" value="" style="endArrow=classic;dashed=1;html=1;rounded=0;strokeColor=#FF00FF;endFill=1;strokeWidth=2;" parent="1" edge="1">
          <mxGeometry width="50" height="50" relative="1" as="geometry">
            <mxPoint x="1460" y="330" as="sourcePoint" />
            <mxPoint x="1880" y="330" as="targetPoint" />
          </mxGeometry>
        </mxCell>
        <mxCell id="5TQuwyumRw6ZRlAPxjWT-239" value="" style="endArrow=classic;dashed=1;html=1;rounded=0;strokeColor=#FF00FF;endFill=1;strokeWidth=2;entryX=0;entryY=0.5;entryDx=0;entryDy=0;" parent="1" target="5TQuwyumRw6ZRlAPxjWT-56" edge="1">
          <mxGeometry width="50" height="50" relative="1" as="geometry">
            <mxPoint x="1460" y="270" as="sourcePoint" />
            <mxPoint x="1600" y="470" as="targetPoint" />
            <Array as="points">
              <mxPoint x="1600" y="270" />
              <mxPoint x="1600" y="490" />
            </Array>
          </mxGeometry>
        </mxCell>
        <mxCell id="5TQuwyumRw6ZRlAPxjWT-240" value="&lt;font style=&quot;font-size: 10px;&quot;&gt;FuncSel&lt;br&gt;&lt;/font&gt;" style="text;html=1;strokeColor=none;fillColor=none;align=center;verticalAlign=middle;whiteSpace=wrap;rounded=0;" parent="1" vertex="1">
          <mxGeometry x="1290" y="420" width="40" height="20" as="geometry" />
        </mxCell>
        <mxCell id="LJ8jeTjM3cDZCOLipH15-13" style="edgeStyle=orthogonalEdgeStyle;rounded=0;orthogonalLoop=1;jettySize=auto;html=1;exitX=0.5;exitY=1;exitDx=0;exitDy=0;entryX=0.5;entryY=0;entryDx=0;entryDy=0;" parent="1" source="5TQuwyumRw6ZRlAPxjWT-241" target="LJ8jeTjM3cDZCOLipH15-30" edge="1">
          <mxGeometry relative="1" as="geometry">
            <mxPoint x="1705" y="470" as="targetPoint" />
            <Array as="points">
              <mxPoint x="1730" y="450" />
              <mxPoint x="1705" y="450" />
            </Array>
          </mxGeometry>
        </mxCell>
        <mxCell id="5TQuwyumRw6ZRlAPxjWT-241" value="&lt;font style=&quot;font-size: 10px;&quot;&gt;DMSel&lt;br&gt;&lt;/font&gt;" style="text;html=1;strokeColor=none;fillColor=none;align=center;verticalAlign=middle;whiteSpace=wrap;rounded=0;" parent="1" vertex="1">
          <mxGeometry x="1710" y="420" width="40" height="20" as="geometry" />
        </mxCell>
        <mxCell id="5TQuwyumRw6ZRlAPxjWT-243" value="" style="endArrow=classic;dashed=1;html=1;rounded=0;strokeColor=#FF00FF;endFill=1;strokeWidth=2;" parent="1" edge="1">
          <mxGeometry width="50" height="50" relative="1" as="geometry">
            <mxPoint x="1880" y="330" as="sourcePoint" />
            <mxPoint x="1980" y="430" as="targetPoint" />
            <Array as="points">
              <mxPoint x="1980" y="330" />
            </Array>
          </mxGeometry>
        </mxCell>
        <mxCell id="5TQuwyumRw6ZRlAPxjWT-244" value="&lt;font color=&quot;#ff00ff&quot; style=&quot;font-size: 14px;&quot;&gt;MUX_&lt;br&gt;GRF_&lt;br&gt;WD_W&lt;/font&gt;" style="shape=trapezoid;perimeter=trapezoidPerimeter;whiteSpace=wrap;html=1;fixedSize=1;direction=south;" parent="1" vertex="1">
          <mxGeometry x="1950" y="420" width="50" height="100" as="geometry" />
        </mxCell>
        <mxCell id="5TQuwyumRw6ZRlAPxjWT-245" value="" style="endArrow=classic;dashed=1;html=1;rounded=0;strokeColor=#FF00FF;endFill=1;strokeWidth=2;entryX=0;entryY=0.5;entryDx=0;entryDy=0;" parent="1" target="5TQuwyumRw6ZRlAPxjWT-55" edge="1">
          <mxGeometry width="50" height="50" relative="1" as="geometry">
            <mxPoint x="1880" y="250" as="sourcePoint" />
            <mxPoint x="2080" y="350" as="targetPoint" />
            <Array as="points">
              <mxPoint x="2030" y="250" />
              <mxPoint x="2030" y="430" />
            </Array>
          </mxGeometry>
        </mxCell>
        <mxCell id="5TQuwyumRw6ZRlAPxjWT-246" value="&lt;font color=&quot;#ff3333&quot;&gt;0&lt;/font&gt;" style="text;html=1;strokeColor=none;fillColor=none;align=center;verticalAlign=middle;whiteSpace=wrap;rounded=0;fontColor=#006600;" parent="1" vertex="1">
          <mxGeometry x="930" y="720" width="20" height="10" as="geometry" />
        </mxCell>
        <mxCell id="5TQuwyumRw6ZRlAPxjWT-247" value="&lt;font color=&quot;#ff3333&quot;&gt;0&lt;/font&gt;" style="text;html=1;strokeColor=none;fillColor=none;align=center;verticalAlign=middle;whiteSpace=wrap;rounded=0;fontColor=#006600;" parent="1" vertex="1">
          <mxGeometry x="1440" y="730" width="20" height="10" as="geometry" />
        </mxCell>
        <mxCell id="5TQuwyumRw6ZRlAPxjWT-248" value="&lt;font color=&quot;#ff3333&quot;&gt;0&lt;/font&gt;" style="text;html=1;strokeColor=none;fillColor=none;align=center;verticalAlign=middle;whiteSpace=wrap;rounded=0;fontColor=#006600;" parent="1" vertex="1">
          <mxGeometry x="1860" y="730" width="20" height="10" as="geometry" />
        </mxCell>
        <mxCell id="5TQuwyumRw6ZRlAPxjWT-249" value="&lt;font color=&quot;#ff3333&quot;&gt;0&lt;/font&gt;" style="text;html=1;strokeColor=none;fillColor=none;align=center;verticalAlign=middle;whiteSpace=wrap;rounded=0;fontColor=#006600;" parent="1" vertex="1">
          <mxGeometry x="240" y="720" width="20" height="10" as="geometry" />
        </mxCell>
        <mxCell id="5TQuwyumRw6ZRlAPxjWT-250" value="&lt;font style=&quot;font-size: 10px;&quot;&gt;Tuse_rs&lt;/font&gt;" style="text;html=1;strokeColor=none;fillColor=none;align=center;verticalAlign=middle;whiteSpace=wrap;rounded=0;" parent="1" vertex="1">
          <mxGeometry x="320" y="1060" width="40" height="20" as="geometry" />
        </mxCell>
        <mxCell id="5TQuwyumRw6ZRlAPxjWT-251" value="" style="endArrow=classic;dashed=1;html=1;rounded=0;entryX=0;entryY=0.5;entryDx=0;entryDy=0;strokeColor=#FF00FF;endFill=1;strokeWidth=2;" parent="1" target="5TQuwyumRw6ZRlAPxjWT-250" edge="1">
          <mxGeometry width="50" height="50" relative="1" as="geometry">
            <mxPoint x="270" y="1070" as="sourcePoint" />
            <mxPoint x="354.87" y="1020" as="targetPoint" />
            <Array as="points" />
          </mxGeometry>
        </mxCell>
        <mxCell id="5TQuwyumRw6ZRlAPxjWT-252" value="&lt;font style=&quot;font-size: 10px;&quot;&gt;Tuse_rt&lt;/font&gt;" style="text;html=1;strokeColor=none;fillColor=none;align=center;verticalAlign=middle;whiteSpace=wrap;rounded=0;" parent="1" vertex="1">
          <mxGeometry x="320" y="1080" width="40" height="20" as="geometry" />
        </mxCell>
        <mxCell id="5TQuwyumRw6ZRlAPxjWT-253" value="" style="endArrow=classic;dashed=1;html=1;rounded=0;entryX=0;entryY=0.5;entryDx=0;entryDy=0;strokeColor=#FF00FF;endFill=1;strokeWidth=2;" parent="1" target="5TQuwyumRw6ZRlAPxjWT-252" edge="1">
          <mxGeometry width="50" height="50" relative="1" as="geometry">
            <mxPoint x="270" y="1090" as="sourcePoint" />
            <mxPoint x="380" y="1049.88" as="targetPoint" />
            <Array as="points" />
          </mxGeometry>
        </mxCell>
        <mxCell id="5TQuwyumRw6ZRlAPxjWT-254" value="&lt;font style=&quot;font-size: 10px;&quot;&gt;FMUX_V1_D_Sel&lt;/font&gt;" style="text;html=1;strokeColor=none;fillColor=none;align=center;verticalAlign=middle;whiteSpace=wrap;rounded=0;" parent="1" vertex="1">
          <mxGeometry x="630" y="1040" width="80" height="20" as="geometry" />
        </mxCell>
        <mxCell id="5TQuwyumRw6ZRlAPxjWT-255" value="&lt;font style=&quot;font-size: 10px;&quot;&gt;FMUX_V2_D_Sel&lt;/font&gt;" style="text;html=1;strokeColor=none;fillColor=none;align=center;verticalAlign=middle;whiteSpace=wrap;rounded=0;" parent="1" vertex="1">
          <mxGeometry x="630" y="1060" width="80" height="20" as="geometry" />
        </mxCell>
        <mxCell id="5TQuwyumRw6ZRlAPxjWT-256" value="&lt;font style=&quot;font-size: 10px;&quot;&gt;FMUX_V1_E_Sel&lt;/font&gt;" style="text;html=1;strokeColor=none;fillColor=none;align=center;verticalAlign=middle;whiteSpace=wrap;rounded=0;" parent="1" vertex="1">
          <mxGeometry x="620" y="1080" width="80" height="20" as="geometry" />
        </mxCell>
        <mxCell id="5TQuwyumRw6ZRlAPxjWT-257" value="&lt;font style=&quot;font-size: 10px;&quot;&gt;FMUX_V2_E_Sel&lt;/font&gt;" style="text;html=1;strokeColor=none;fillColor=none;align=center;verticalAlign=middle;whiteSpace=wrap;rounded=0;" parent="1" vertex="1">
          <mxGeometry x="620" y="1100" width="80" height="20" as="geometry" />
        </mxCell>
        <mxCell id="5TQuwyumRw6ZRlAPxjWT-258" value="&lt;font style=&quot;font-size: 10px;&quot;&gt;FMUX_DM_D_M_Sel&lt;/font&gt;" style="text;html=1;strokeColor=none;fillColor=none;align=center;verticalAlign=middle;whiteSpace=wrap;rounded=0;" parent="1" vertex="1">
          <mxGeometry x="600" y="1120" width="100" height="20" as="geometry" />
        </mxCell>
        <mxCell id="5TQuwyumRw6ZRlAPxjWT-261" value="" style="endArrow=classic;html=1;rounded=0;fontFamily=Helvetica;fontSize=12;fontColor=default;strokeWidth=2;strokeColor=#006600;entryX=1;entryY=0.5;entryDx=0;entryDy=0;" parent="1" target="5TQuwyumRw6ZRlAPxjWT-279" edge="1">
          <mxGeometry width="50" height="50" relative="1" as="geometry">
            <mxPoint x="960" y="250" as="sourcePoint" />
            <mxPoint x="340" y="1130" as="targetPoint" />
            <Array as="points">
              <mxPoint x="960" y="880" />
            </Array>
          </mxGeometry>
        </mxCell>
        <mxCell id="5TQuwyumRw6ZRlAPxjWT-264" value="" style="endArrow=classic;html=1;rounded=0;fontFamily=Helvetica;fontSize=12;fontColor=default;entryX=0.5;entryY=0;entryDx=0;entryDy=0;strokeColor=#0066CC;strokeWidth=2;" parent="1" target="5TQuwyumRw6ZRlAPxjWT-269" edge="1">
          <mxGeometry width="50" height="50" relative="1" as="geometry">
            <mxPoint x="360" y="980" as="sourcePoint" />
            <mxPoint x="490.27" y="1030" as="targetPoint" />
          </mxGeometry>
        </mxCell>
        <mxCell id="5TQuwyumRw6ZRlAPxjWT-265" value="" style="endArrow=classic;html=1;rounded=0;fontFamily=Helvetica;fontSize=12;fontColor=default;entryX=0.5;entryY=0;entryDx=0;entryDy=0;strokeColor=#0066CC;strokeWidth=2;" parent="1" target="5TQuwyumRw6ZRlAPxjWT-268" edge="1">
          <mxGeometry width="50" height="50" relative="1" as="geometry">
            <mxPoint x="420" y="960" as="sourcePoint" />
            <mxPoint x="429.89" y="1030" as="targetPoint" />
          </mxGeometry>
        </mxCell>
        <mxCell id="5TQuwyumRw6ZRlAPxjWT-266" value="" style="endArrow=classic;html=1;rounded=0;fontFamily=Helvetica;fontSize=12;fontColor=default;entryX=0.5;entryY=0;entryDx=0;entryDy=0;strokeColor=#0066CC;strokeWidth=2;" parent="1" target="ER48WJ5dUgR68-UzpMZ_-11" edge="1">
          <mxGeometry width="50" height="50" relative="1" as="geometry">
            <mxPoint x="580" y="880" as="sourcePoint" />
            <mxPoint x="630" y="1020" as="targetPoint" />
          </mxGeometry>
        </mxCell>
        <mxCell id="5TQuwyumRw6ZRlAPxjWT-267" value="" style="endArrow=classic;html=1;rounded=0;fontFamily=Helvetica;fontSize=12;fontColor=default;entryX=0.5;entryY=0;entryDx=0;entryDy=0;strokeColor=#0066CC;strokeWidth=2;" parent="1" target="ER48WJ5dUgR68-UzpMZ_-12" edge="1">
          <mxGeometry width="50" height="50" relative="1" as="geometry">
            <mxPoint x="520" y="900" as="sourcePoint" />
            <mxPoint x="570" y="1020" as="targetPoint" />
          </mxGeometry>
        </mxCell>
        <mxCell id="5TQuwyumRw6ZRlAPxjWT-268" value="&lt;font style=&quot;font-size: 10px;&quot;&gt;GRF_A3_E&lt;/font&gt;" style="text;html=1;strokeColor=none;fillColor=none;align=center;verticalAlign=middle;whiteSpace=wrap;rounded=0;" parent="1" vertex="1">
          <mxGeometry x="390" y="1040" width="60" height="20" as="geometry" />
        </mxCell>
        <mxCell id="5TQuwyumRw6ZRlAPxjWT-269" value="&lt;font style=&quot;font-size: 10px;&quot;&gt;GRF_A3_M&lt;/font&gt;" style="text;html=1;strokeColor=none;fillColor=none;align=center;verticalAlign=middle;whiteSpace=wrap;rounded=0;" parent="1" vertex="1">
          <mxGeometry x="330" y="1040" width="60" height="20" as="geometry" />
        </mxCell>
        <mxCell id="5TQuwyumRw6ZRlAPxjWT-275" value="" style="endArrow=classic;html=1;rounded=0;fontFamily=Helvetica;fontSize=12;fontColor=default;strokeWidth=2;strokeColor=#006600;entryX=1;entryY=0.5;entryDx=0;entryDy=0;" parent="1" target="5TQuwyumRw6ZRlAPxjWT-280" edge="1">
          <mxGeometry width="50" height="50" relative="1" as="geometry">
            <mxPoint x="1470" y="250" as="sourcePoint" />
            <mxPoint x="410" y="1140" as="targetPoint" />
            <Array as="points">
              <mxPoint x="1470" y="900" />
            </Array>
          </mxGeometry>
        </mxCell>
        <mxCell id="5TQuwyumRw6ZRlAPxjWT-278" value="&lt;font style=&quot;font-size: 10px;&quot;&gt;GRF_WD_W_Sel_M&lt;/font&gt;" style="text;html=1;strokeColor=none;fillColor=none;align=center;verticalAlign=middle;whiteSpace=wrap;rounded=0;" parent="1" vertex="1">
          <mxGeometry x="290" y="930" width="100" height="20" as="geometry" />
        </mxCell>
        <mxCell id="5TQuwyumRw6ZRlAPxjWT-279" value="GRFWE_E" style="text;html=1;strokeColor=none;fillColor=none;align=center;verticalAlign=middle;whiteSpace=wrap;rounded=0;fontSize=10;" parent="1" vertex="1">
          <mxGeometry x="300" y="870" width="60" height="20" as="geometry" />
        </mxCell>
        <mxCell id="5TQuwyumRw6ZRlAPxjWT-280" value="&lt;font style=&quot;font-size: 10px;&quot;&gt;GRFWE_M&lt;/font&gt;" style="text;html=1;strokeColor=none;fillColor=none;align=center;verticalAlign=middle;whiteSpace=wrap;rounded=0;fontSize=10;" parent="1" vertex="1">
          <mxGeometry x="340" y="890" width="60" height="20" as="geometry" />
        </mxCell>
        <mxCell id="5TQuwyumRw6ZRlAPxjWT-281" value="&lt;span style=&quot;color: rgb(0, 0, 0); font-family: Helvetica; font-size: 10px; font-style: normal; font-variant-ligatures: normal; font-variant-caps: normal; font-weight: 400; letter-spacing: normal; orphans: 2; text-indent: 0px; text-transform: none; widows: 2; word-spacing: 0px; -webkit-text-stroke-width: 0px; background-color: rgb(251, 251, 251); text-decoration-thickness: initial; text-decoration-style: initial; text-decoration-color: initial; float: none; display: inline !important;&quot;&gt;GRF_WD_W_Sel_E&lt;/span&gt;" style="text;whiteSpace=wrap;html=1;fontSize=12;fontFamily=Helvetica;fontColor=default;align=center;verticalAlign=middle;" parent="1" vertex="1">
          <mxGeometry x="330" y="910" width="100" height="20" as="geometry" />
        </mxCell>
        <mxCell id="ER48WJ5dUgR68-UzpMZ_-8" value="" style="endArrow=classic;html=1;rounded=0;fontFamily=Helvetica;fontSize=12;fontColor=default;entryX=0.5;entryY=0;entryDx=0;entryDy=0;strokeColor=#0066CC;strokeWidth=2;" parent="1" target="ER48WJ5dUgR68-UzpMZ_-14" edge="1">
          <mxGeometry width="50" height="50" relative="1" as="geometry">
            <mxPoint x="450" y="940" as="sourcePoint" />
            <mxPoint x="460" y="1020" as="targetPoint" />
          </mxGeometry>
        </mxCell>
        <mxCell id="ER48WJ5dUgR68-UzpMZ_-9" value="" style="endArrow=classic;html=1;rounded=0;fontFamily=Helvetica;fontSize=12;fontColor=default;entryX=0.5;entryY=0;entryDx=0;entryDy=0;strokeColor=#0066CC;strokeWidth=2;" parent="1" target="ER48WJ5dUgR68-UzpMZ_-13" edge="1">
          <mxGeometry width="50" height="50" relative="1" as="geometry">
            <mxPoint x="550" y="920" as="sourcePoint" />
            <mxPoint x="529.49" y="1020" as="targetPoint" />
          </mxGeometry>
        </mxCell>
        <mxCell id="ER48WJ5dUgR68-UzpMZ_-11" value="GRFWE_E" style="text;html=1;strokeColor=none;fillColor=none;align=center;verticalAlign=middle;whiteSpace=wrap;rounded=0;fontSize=10;" parent="1" vertex="1">
          <mxGeometry x="550" y="1040" width="60" height="20" as="geometry" />
        </mxCell>
        <mxCell id="ER48WJ5dUgR68-UzpMZ_-12" value="&lt;font style=&quot;font-size: 10px;&quot;&gt;GRFWE_M&lt;/font&gt;" style="text;html=1;strokeColor=none;fillColor=none;align=center;verticalAlign=middle;whiteSpace=wrap;rounded=0;fontSize=10;" parent="1" vertex="1">
          <mxGeometry x="490" y="1040" width="60" height="20" as="geometry" />
        </mxCell>
        <mxCell id="ER48WJ5dUgR68-UzpMZ_-13" value="&lt;span style=&quot;color: rgb(0, 0, 0); font-family: Helvetica; font-size: 10px; font-style: normal; font-variant-ligatures: normal; font-variant-caps: normal; font-weight: 400; letter-spacing: normal; orphans: 2; text-indent: 0px; text-transform: none; widows: 2; word-spacing: 0px; -webkit-text-stroke-width: 0px; background-color: rgb(251, 251, 251); text-decoration-thickness: initial; text-decoration-style: initial; text-decoration-color: initial; float: none; display: inline !important;&quot;&gt;GRF_WD_W_Sel_E&lt;/span&gt;" style="text;whiteSpace=wrap;html=1;fontSize=12;fontFamily=Helvetica;fontColor=default;align=center;verticalAlign=middle;" parent="1" vertex="1">
          <mxGeometry x="500" y="1120" width="100" height="20" as="geometry" />
        </mxCell>
        <mxCell id="ER48WJ5dUgR68-UzpMZ_-14" value="&lt;font style=&quot;font-size: 10px;&quot;&gt;GRF_WD_W_Sel_M&lt;/font&gt;" style="text;html=1;strokeColor=none;fillColor=none;align=center;verticalAlign=middle;whiteSpace=wrap;rounded=0;" parent="1" vertex="1">
          <mxGeometry x="400" y="1120" width="100" height="20" as="geometry" />
        </mxCell>
        <mxCell id="ER48WJ5dUgR68-UzpMZ_-19" value="&lt;font style=&quot;font-size: 14px;&quot;&gt;&lt;font color=&quot;#0066cc&quot;&gt;FMUX_V1_E&lt;/font&gt;&lt;br&gt;&lt;/font&gt;" style="shape=trapezoid;perimeter=trapezoidPerimeter;whiteSpace=wrap;html=1;fixedSize=1;rounded=0;strokeColor=default;align=center;verticalAlign=middle;fontFamily=Helvetica;fontSize=12;fontColor=default;fillColor=default;direction=south;" parent="1" vertex="1">
          <mxGeometry x="1050" y="370" width="90" height="60" as="geometry" />
        </mxCell>
        <mxCell id="ER48WJ5dUgR68-UzpMZ_-20" value="&lt;font style=&quot;font-size: 10px;&quot;&gt;OPSel&lt;br&gt;&lt;/font&gt;" style="text;html=1;strokeColor=none;fillColor=none;align=center;verticalAlign=middle;whiteSpace=wrap;rounded=0;" parent="1" vertex="1">
          <mxGeometry x="1290" y="400" width="30" height="20" as="geometry" />
        </mxCell>
        <mxCell id="ER48WJ5dUgR68-UzpMZ_-21" value="&lt;font style=&quot;font-size: 10px;&quot;&gt;A&lt;br&gt;&lt;/font&gt;" style="text;html=1;strokeColor=none;fillColor=none;align=center;verticalAlign=middle;whiteSpace=wrap;rounded=0;" parent="1" vertex="1">
          <mxGeometry x="1250" y="400" width="20" height="20" as="geometry" />
        </mxCell>
        <mxCell id="ER48WJ5dUgR68-UzpMZ_-22" value="&lt;font style=&quot;font-size: 10px;&quot;&gt;B&lt;br&gt;&lt;/font&gt;" style="text;html=1;strokeColor=none;fillColor=none;align=center;verticalAlign=middle;whiteSpace=wrap;rounded=0;" parent="1" vertex="1">
          <mxGeometry x="1270" y="440" width="20" height="20" as="geometry" />
        </mxCell>
        <mxCell id="ER48WJ5dUgR68-UzpMZ_-24" value="&lt;font style=&quot;font-size: 10px;&quot;&gt;shamt&lt;br&gt;&lt;/font&gt;" style="text;html=1;strokeColor=none;fillColor=none;align=center;verticalAlign=middle;whiteSpace=wrap;rounded=0;" parent="1" vertex="1">
          <mxGeometry x="1250" y="480" width="40" height="20" as="geometry" />
        </mxCell>
        <mxCell id="LJ8jeTjM3cDZCOLipH15-61" style="edgeStyle=orthogonalEdgeStyle;rounded=0;orthogonalLoop=1;jettySize=auto;html=1;exitX=1;exitY=0.5;exitDx=0;exitDy=0;" parent="1" source="ER48WJ5dUgR68-UzpMZ_-26" edge="1">
          <mxGeometry relative="1" as="geometry">
            <mxPoint x="1380" y="430" as="targetPoint" />
            <Array as="points">
              <mxPoint x="1360" y="450" />
              <mxPoint x="1360" y="430" />
            </Array>
          </mxGeometry>
        </mxCell>
        <mxCell id="ER48WJ5dUgR68-UzpMZ_-26" value="&lt;font style=&quot;font-size: 10px;&quot;&gt;OP&lt;br&gt;&lt;/font&gt;" style="text;html=1;strokeColor=none;fillColor=none;align=center;verticalAlign=middle;whiteSpace=wrap;rounded=0;" parent="1" vertex="1">
          <mxGeometry x="1320" y="440" width="20" height="20" as="geometry" />
        </mxCell>
        <mxCell id="ER48WJ5dUgR68-UzpMZ_-29" value="&lt;font style=&quot;font-size: 10px;&quot;&gt;pc8_D&lt;/font&gt;" style="text;html=1;strokeColor=none;fillColor=none;align=center;verticalAlign=middle;whiteSpace=wrap;rounded=0;" parent="1" vertex="1">
          <mxGeometry x="570" y="700" width="40" height="20" as="geometry" />
        </mxCell>
        <mxCell id="UxIOJU8ga2yE_hNLcjhK-1" value="&lt;font style=&quot;font-size: 10px;&quot;&gt;SPL_rs&lt;/font&gt;" style="text;html=1;strokeColor=none;fillColor=none;align=center;verticalAlign=middle;whiteSpace=wrap;rounded=0;" parent="1" vertex="1">
          <mxGeometry x="110" y="930" width="40" height="20" as="geometry" />
        </mxCell>
        <mxCell id="UxIOJU8ga2yE_hNLcjhK-2" value="&lt;font style=&quot;font-size: 10px;&quot;&gt;SPL_rt&lt;/font&gt;" style="text;html=1;strokeColor=none;fillColor=none;align=center;verticalAlign=middle;whiteSpace=wrap;rounded=0;" parent="1" vertex="1">
          <mxGeometry x="140" y="950" width="40" height="20" as="geometry" />
        </mxCell>
        <mxCell id="UxIOJU8ga2yE_hNLcjhK-3" value="&lt;font style=&quot;font-size: 10px;&quot;&gt;SPL_rs&lt;/font&gt;" style="text;html=1;strokeColor=none;fillColor=none;align=center;verticalAlign=middle;whiteSpace=wrap;rounded=0;" parent="1" vertex="1">
          <mxGeometry x="320" y="1100" width="40" height="20" as="geometry" />
        </mxCell>
        <mxCell id="UxIOJU8ga2yE_hNLcjhK-4" value="&lt;font style=&quot;font-size: 10px;&quot;&gt;SPL_rt&lt;/font&gt;" style="text;html=1;strokeColor=none;fillColor=none;align=center;verticalAlign=middle;whiteSpace=wrap;rounded=0;" parent="1" vertex="1">
          <mxGeometry x="320" y="1120" width="40" height="20" as="geometry" />
        </mxCell>
        <mxCell id="UxIOJU8ga2yE_hNLcjhK-5" value="" style="endArrow=classic;html=1;rounded=0;strokeWidth=2;" parent="1" edge="1">
          <mxGeometry width="50" height="50" relative="1" as="geometry">
            <mxPoint x="440" y="380" as="sourcePoint" />
            <mxPoint x="440" y="350" as="targetPoint" />
          </mxGeometry>
        </mxCell>
        <mxCell id="UxIOJU8ga2yE_hNLcjhK-6" value="" style="endArrow=classic;html=1;rounded=0;strokeWidth=2;" parent="1" edge="1">
          <mxGeometry width="50" height="50" relative="1" as="geometry">
            <mxPoint x="460" y="400" as="sourcePoint" />
            <mxPoint x="460" y="350" as="targetPoint" />
          </mxGeometry>
        </mxCell>
        <mxCell id="UxIOJU8ga2yE_hNLcjhK-7" value="" style="endArrow=classic;html=1;rounded=0;entryX=0;entryY=0.5;entryDx=0;entryDy=0;strokeWidth=2;" parent="1" target="UxIOJU8ga2yE_hNLcjhK-1" edge="1">
          <mxGeometry width="50" height="50" relative="1" as="geometry">
            <mxPoint x="40" y="940" as="sourcePoint" />
            <mxPoint x="145" y="950" as="targetPoint" />
          </mxGeometry>
        </mxCell>
        <mxCell id="UxIOJU8ga2yE_hNLcjhK-8" value="" style="endArrow=classic;html=1;rounded=0;entryX=0;entryY=0.5;entryDx=0;entryDy=0;strokeWidth=2;" parent="1" target="UxIOJU8ga2yE_hNLcjhK-2" edge="1">
          <mxGeometry width="50" height="50" relative="1" as="geometry">
            <mxPoint x="40" y="960" as="sourcePoint" />
            <mxPoint x="145" y="950" as="targetPoint" />
            <Array as="points" />
          </mxGeometry>
        </mxCell>
        <mxCell id="UxIOJU8ga2yE_hNLcjhK-9" value="" style="endArrow=classic;html=1;rounded=0;entryX=0;entryY=0.5;entryDx=0;entryDy=0;strokeWidth=2;" parent="1" target="UxIOJU8ga2yE_hNLcjhK-3" edge="1">
          <mxGeometry width="50" height="50" relative="1" as="geometry">
            <mxPoint x="270" y="1109.84" as="sourcePoint" />
            <mxPoint x="310" y="1109.84" as="targetPoint" />
          </mxGeometry>
        </mxCell>
        <mxCell id="UxIOJU8ga2yE_hNLcjhK-10" value="" style="endArrow=classic;html=1;rounded=0;entryX=0;entryY=0.5;entryDx=0;entryDy=0;strokeWidth=2;" parent="1" target="UxIOJU8ga2yE_hNLcjhK-4" edge="1">
          <mxGeometry width="50" height="50" relative="1" as="geometry">
            <mxPoint x="270" y="1130" as="sourcePoint" />
            <mxPoint x="300" y="1129.9199999999998" as="targetPoint" />
          </mxGeometry>
        </mxCell>
        <mxCell id="9cWL1Xrt89w71l2dS4Ic-1" value="&lt;font style=&quot;font-size: 16px;&quot; color=&quot;#b266ff&quot;&gt;SPL&lt;br&gt;&lt;/font&gt;" style="text;html=1;strokeColor=none;fillColor=none;align=center;verticalAlign=middle;whiteSpace=wrap;rounded=0;" parent="1" vertex="1">
          <mxGeometry x="300" y="390" width="40" height="20" as="geometry" />
        </mxCell>
        <mxCell id="LJ8jeTjM3cDZCOLipH15-2" value="i_inst_rdata" style="text;html=1;strokeColor=none;fillColor=none;align=center;verticalAlign=middle;whiteSpace=wrap;rounded=0;fontColor=#FF3333;" parent="1" vertex="1">
          <mxGeometry x="190" y="300" width="70" height="30" as="geometry" />
        </mxCell>
        <mxCell id="LJ8jeTjM3cDZCOLipH15-4" value="i_inst_addr" style="text;html=1;strokeColor=none;fillColor=none;align=center;verticalAlign=middle;whiteSpace=wrap;rounded=0;fontColor=#FF3333;" parent="1" vertex="1">
          <mxGeometry x="50" y="300" width="70" height="30" as="geometry" />
        </mxCell>
        <mxCell id="LJ8jeTjM3cDZCOLipH15-6" value="&lt;font style=&quot;&quot;&gt;&lt;font style=&quot;font-size: 11px;&quot;&gt;RAM&lt;/font&gt;&lt;br&gt;&lt;/font&gt;" style="text;html=1;strokeColor=none;fillColor=none;align=center;verticalAlign=middle;whiteSpace=wrap;rounded=0;fontColor=#FF3333;" parent="1" vertex="1">
          <mxGeometry x="1700" y="900" width="40" height="20" as="geometry" />
        </mxCell>
        <mxCell id="LJ8jeTjM3cDZCOLipH15-7" style="edgeStyle=orthogonalEdgeStyle;rounded=0;orthogonalLoop=1;jettySize=auto;html=1;strokeColor=#FF3333;strokeWidth=2;sourcePerimeterSpacing=0;endArrow=diamond;endFill=1;exitX=1;exitY=0.5;exitDx=0;exitDy=0;entryX=0;entryY=0.5;entryDx=0;entryDy=0;" parent="1" target="LJ8jeTjM3cDZCOLipH15-21" edge="1" source="y1xQ33muBoSTJrlKvMSJ-140">
          <mxGeometry relative="1" as="geometry">
            <mxPoint x="1690" y="895" as="targetPoint" />
            <mxPoint x="1650" y="445" as="sourcePoint" />
            <Array as="points">
              <mxPoint x="1660" y="450" />
              <mxPoint x="1660" y="895" />
            </Array>
          </mxGeometry>
        </mxCell>
        <mxCell id="LJ8jeTjM3cDZCOLipH15-8" style="edgeStyle=orthogonalEdgeStyle;rounded=0;orthogonalLoop=1;jettySize=auto;html=1;strokeColor=#FF3333;strokeWidth=2;sourcePerimeterSpacing=0;endArrow=diamond;endFill=1;entryX=0;entryY=0.5;entryDx=0;entryDy=0;" parent="1" target="LJ8jeTjM3cDZCOLipH15-22" edge="1">
          <mxGeometry relative="1" as="geometry">
            <mxPoint x="1680" y="925" as="targetPoint" />
            <mxPoint x="1680" y="530" as="sourcePoint" />
            <Array as="points">
              <mxPoint x="1680" y="925" />
            </Array>
          </mxGeometry>
        </mxCell>
        <mxCell id="LJ8jeTjM3cDZCOLipH15-9" style="edgeStyle=orthogonalEdgeStyle;rounded=0;orthogonalLoop=1;jettySize=auto;html=1;strokeColor=#FF3333;strokeWidth=2;sourcePerimeterSpacing=0;endArrow=none;endFill=0;startArrow=diamond;startFill=1;entryX=1;entryY=0.5;entryDx=0;entryDy=0;" parent="1" target="LJ8jeTjM3cDZCOLipH15-23" edge="1">
          <mxGeometry relative="1" as="geometry">
            <mxPoint x="1750" y="910" as="targetPoint" />
            <mxPoint x="1800" y="480" as="sourcePoint" />
            <Array as="points">
              <mxPoint x="1800" y="905" />
            </Array>
          </mxGeometry>
        </mxCell>
        <mxCell id="LJ8jeTjM3cDZCOLipH15-10" style="edgeStyle=orthogonalEdgeStyle;rounded=0;orthogonalLoop=1;jettySize=auto;html=1;strokeColor=#FF3333;strokeWidth=2;sourcePerimeterSpacing=0;endArrow=diamond;endFill=1;entryX=0.5;entryY=0;entryDx=0;entryDy=0;exitX=1;exitY=0.5;exitDx=0;exitDy=0;" parent="1" source="LJ8jeTjM3cDZCOLipH15-30" target="LJ8jeTjM3cDZCOLipH15-20" edge="1">
          <mxGeometry relative="1" as="geometry">
            <mxPoint x="1790" y="925" as="targetPoint" />
            <mxPoint x="1755" y="495" as="sourcePoint" />
            <Array as="points">
              <mxPoint x="1760" y="490" />
            </Array>
          </mxGeometry>
        </mxCell>
        <mxCell id="LJ8jeTjM3cDZCOLipH15-17" style="edgeStyle=orthogonalEdgeStyle;rounded=0;orthogonalLoop=1;jettySize=auto;html=1;entryX=0;entryY=0.5;entryDx=0;entryDy=0;exitX=1;exitY=0.5;exitDx=0;exitDy=0;" parent="1" source="LJ8jeTjM3cDZCOLipH15-33" target="y1xQ33muBoSTJrlKvMSJ-142" edge="1">
          <mxGeometry relative="1" as="geometry">
            <mxPoint x="1840" y="465" as="sourcePoint" />
            <Array as="points">
              <mxPoint x="1824" y="460" />
            </Array>
          </mxGeometry>
        </mxCell>
        <mxCell id="LJ8jeTjM3cDZCOLipH15-16" style="edgeStyle=orthogonalEdgeStyle;rounded=0;orthogonalLoop=1;jettySize=auto;html=1;exitX=0.5;exitY=1;exitDx=0;exitDy=0;entryX=0;entryY=0;entryDx=0;entryDy=0;" parent="1" source="5TQuwyumRw6ZRlAPxjWT-241" target="LJ8jeTjM3cDZCOLipH15-33" edge="1">
          <mxGeometry relative="1" as="geometry">
            <mxPoint x="1740" y="450" as="sourcePoint" />
            <mxPoint x="1750" y="450" as="targetPoint" />
            <Array as="points">
              <mxPoint x="1730" y="450" />
            </Array>
          </mxGeometry>
        </mxCell>
        <mxCell id="LJ8jeTjM3cDZCOLipH15-18" value="&lt;font style=&quot;font-size: 16px;&quot; color=&quot;#b266ff&quot;&gt;DM&lt;br&gt;&lt;/font&gt;" style="text;html=1;strokeColor=none;fillColor=none;align=center;verticalAlign=middle;whiteSpace=wrap;rounded=0;" parent="1" vertex="1">
          <mxGeometry x="1810" y="420" width="30" height="20" as="geometry" />
        </mxCell>
        <mxCell id="LJ8jeTjM3cDZCOLipH15-20" value="&lt;font style=&quot;font-size: 10px;&quot;&gt;byteen&lt;br&gt;&lt;/font&gt;" style="text;html=1;strokeColor=none;fillColor=none;align=center;verticalAlign=middle;whiteSpace=wrap;rounded=0;fontColor=#FF3333;" parent="1" vertex="1">
          <mxGeometry x="1745" y="880" width="30" height="10" as="geometry" />
        </mxCell>
        <mxCell id="LJ8jeTjM3cDZCOLipH15-21" value="&lt;font style=&quot;font-size: 10px;&quot;&gt;addr&lt;br&gt;&lt;/font&gt;" style="text;html=1;strokeColor=none;fillColor=none;align=center;verticalAlign=middle;whiteSpace=wrap;rounded=0;fontColor=#FF3333;" parent="1" vertex="1">
          <mxGeometry x="1700" y="890" width="30" height="10" as="geometry" />
        </mxCell>
        <mxCell id="LJ8jeTjM3cDZCOLipH15-22" value="&lt;font style=&quot;font-size: 10px;&quot;&gt;wdata&lt;br&gt;&lt;/font&gt;" style="text;html=1;strokeColor=none;fillColor=none;align=center;verticalAlign=middle;whiteSpace=wrap;rounded=0;fontColor=#FF3333;" parent="1" vertex="1">
          <mxGeometry x="1700" y="920" width="30" height="10" as="geometry" />
        </mxCell>
        <mxCell id="LJ8jeTjM3cDZCOLipH15-23" value="&lt;font style=&quot;font-size: 10px;&quot;&gt;rdata&lt;br&gt;&lt;/font&gt;" style="text;html=1;strokeColor=none;fillColor=none;align=center;verticalAlign=middle;whiteSpace=wrap;rounded=0;fontColor=#FF3333;" parent="1" vertex="1">
          <mxGeometry x="1750" y="900" width="30" height="10" as="geometry" />
        </mxCell>
        <mxCell id="LJ8jeTjM3cDZCOLipH15-71" style="edgeStyle=orthogonalEdgeStyle;rounded=0;orthogonalLoop=1;jettySize=auto;html=1;strokeWidth=2;strokeColor=#FF3333;dashed=1;dashPattern=1 2;" parent="1" source="LJ8jeTjM3cDZCOLipH15-26" edge="1">
          <mxGeometry relative="1" as="geometry">
            <mxPoint x="1660" y="735" as="targetPoint" />
          </mxGeometry>
        </mxCell>
        <mxCell id="LJ8jeTjM3cDZCOLipH15-26" value="m_data_&lt;br&gt;addr" style="text;html=1;strokeColor=none;fillColor=none;align=center;verticalAlign=middle;whiteSpace=wrap;rounded=0;fontColor=#FF3333;" parent="1" vertex="1">
          <mxGeometry x="1690" y="720" width="50" height="30" as="geometry" />
        </mxCell>
        <mxCell id="LJ8jeTjM3cDZCOLipH15-72" style="edgeStyle=orthogonalEdgeStyle;rounded=0;orthogonalLoop=1;jettySize=auto;html=1;exitX=0;exitY=0.5;exitDx=0;exitDy=0;strokeWidth=2;strokeColor=#FF3333;dashed=1;dashPattern=1 2;" parent="1" source="LJ8jeTjM3cDZCOLipH15-27" edge="1">
          <mxGeometry relative="1" as="geometry">
            <mxPoint x="1680" y="775" as="targetPoint" />
          </mxGeometry>
        </mxCell>
        <mxCell id="LJ8jeTjM3cDZCOLipH15-27" value="m_data_&lt;br&gt;wdata" style="text;html=1;strokeColor=none;fillColor=none;align=center;verticalAlign=middle;whiteSpace=wrap;rounded=0;fontColor=#FF3333;" parent="1" vertex="1">
          <mxGeometry x="1700" y="760" width="50" height="30" as="geometry" />
        </mxCell>
        <mxCell id="LJ8jeTjM3cDZCOLipH15-28" value="m_data_&lt;br&gt;byteen" style="text;html=1;strokeColor=none;fillColor=none;align=center;verticalAlign=middle;whiteSpace=wrap;rounded=0;fontColor=#FF3333;" parent="1" vertex="1">
          <mxGeometry x="1690" y="800" width="50" height="30" as="geometry" />
        </mxCell>
        <mxCell id="LJ8jeTjM3cDZCOLipH15-35" value="m_data_rdata" style="text;html=1;strokeColor=none;fillColor=none;align=center;verticalAlign=middle;whiteSpace=wrap;rounded=0;fontColor=#FF3333;" parent="1" vertex="1">
          <mxGeometry x="1810" y="880" width="80" height="30" as="geometry" />
        </mxCell>
        <mxCell id="LJ8jeTjM3cDZCOLipH15-39" value="" style="endArrow=classic;html=1;rounded=0;strokeColor=#FF8000;strokeWidth=2;entryX=0;entryY=0.5;entryDx=0;entryDy=0;" parent="1" target="LJ8jeTjM3cDZCOLipH15-42" edge="1">
          <mxGeometry width="50" height="50" relative="1" as="geometry">
            <mxPoint x="1150" y="400" as="sourcePoint" />
            <mxPoint x="1150" y="760" as="targetPoint" />
            <Array as="points">
              <mxPoint x="1150" y="740" />
            </Array>
          </mxGeometry>
        </mxCell>
        <mxCell id="LJ8jeTjM3cDZCOLipH15-40" value="" style="endArrow=classic;html=1;rounded=0;strokeColor=#FF8000;strokeWidth=2;entryX=0;entryY=0.5;entryDx=0;entryDy=0;" parent="1" target="LJ8jeTjM3cDZCOLipH15-43" edge="1">
          <mxGeometry width="50" height="50" relative="1" as="geometry">
            <mxPoint x="1160" y="480" as="sourcePoint" />
            <mxPoint x="1160" y="790" as="targetPoint" />
            <Array as="points">
              <mxPoint x="1160" y="800" />
            </Array>
          </mxGeometry>
        </mxCell>
        <mxCell id="LJ8jeTjM3cDZCOLipH15-42" value="&lt;font style=&quot;font-size: 10px;&quot;&gt;A&lt;br&gt;&lt;/font&gt;" style="text;html=1;strokeColor=none;fillColor=none;align=center;verticalAlign=middle;whiteSpace=wrap;rounded=0;fontColor=#FF8000;" parent="1" vertex="1">
          <mxGeometry x="1180" y="730" width="20" height="20" as="geometry" />
        </mxCell>
        <mxCell id="LJ8jeTjM3cDZCOLipH15-43" value="&lt;font style=&quot;font-size: 10px;&quot;&gt;B&lt;br&gt;&lt;/font&gt;" style="text;html=1;strokeColor=none;fillColor=none;align=center;verticalAlign=middle;whiteSpace=wrap;rounded=0;fontColor=#FF8000;" parent="1" vertex="1">
          <mxGeometry x="1180" y="790" width="20" height="20" as="geometry" />
        </mxCell>
        <mxCell id="LJ8jeTjM3cDZCOLipH15-44" value="&lt;font style=&quot;font-size: 10px;&quot;&gt;MULTSel&lt;br&gt;&lt;/font&gt;" style="text;html=1;strokeColor=none;fillColor=none;align=center;verticalAlign=middle;whiteSpace=wrap;rounded=0;fontColor=#FF8000;" parent="1" vertex="1">
          <mxGeometry x="1260" y="740" width="40" height="20" as="geometry" />
        </mxCell>
        <mxCell id="LJ8jeTjM3cDZCOLipH15-45" value="" style="triangle;whiteSpace=wrap;html=1;direction=east;fillColor=#6a00ff;fontColor=#ffffff;strokeColor=#3700CC;" parent="1" vertex="1">
          <mxGeometry x="1180" y="780" width="10" height="10" as="geometry" />
        </mxCell>
        <mxCell id="LJ8jeTjM3cDZCOLipH15-46" value="&lt;font color=&quot;#ff3333&quot; style=&quot;font-size: 12px;&quot;&gt;0&lt;/font&gt;" style="text;html=1;strokeColor=none;fillColor=none;align=center;verticalAlign=middle;whiteSpace=wrap;rounded=0;fontColor=#00CC00;" parent="1" vertex="1">
          <mxGeometry x="1180" y="750" width="10" height="10" as="geometry" />
        </mxCell>
        <mxCell id="LJ8jeTjM3cDZCOLipH15-47" value="&lt;font style=&quot;font-size: 10px;&quot;&gt;ISMULTDIV&lt;br&gt;&lt;/font&gt;" style="text;html=1;strokeColor=none;fillColor=none;align=center;verticalAlign=middle;whiteSpace=wrap;rounded=0;fontColor=#FF8000;" parent="1" vertex="1">
          <mxGeometry x="1200" y="730" width="60" height="20" as="geometry" />
        </mxCell>
        <mxCell id="LJ8jeTjM3cDZCOLipH15-48" value="" style="endArrow=classic;dashed=1;html=1;rounded=0;strokeColor=#FF00FF;endFill=1;strokeWidth=2;entryX=0.5;entryY=0;entryDx=0;entryDy=0;" parent="1" target="LJ8jeTjM3cDZCOLipH15-44" edge="1">
          <mxGeometry width="50" height="50" relative="1" as="geometry">
            <mxPoint x="950" y="670" as="sourcePoint" />
            <mxPoint x="1270" y="670" as="targetPoint" />
            <Array as="points">
              <mxPoint x="1280" y="670" />
            </Array>
          </mxGeometry>
        </mxCell>
        <mxCell id="LJ8jeTjM3cDZCOLipH15-49" value="" style="endArrow=classic;dashed=1;html=1;rounded=0;strokeColor=#FF00FF;endFill=1;strokeWidth=2;entryX=0.5;entryY=0;entryDx=0;entryDy=0;" parent="1" target="LJ8jeTjM3cDZCOLipH15-47" edge="1">
          <mxGeometry width="50" height="50" relative="1" as="geometry">
            <mxPoint x="950" y="690" as="sourcePoint" />
            <mxPoint x="1210" y="690" as="targetPoint" />
            <Array as="points">
              <mxPoint x="1230" y="690" />
            </Array>
          </mxGeometry>
        </mxCell>
        <mxCell id="LJ8jeTjM3cDZCOLipH15-50" value="&lt;font style=&quot;font-size: 10px;&quot;&gt;Busy&lt;br&gt;&lt;/font&gt;" style="text;html=1;strokeColor=none;fillColor=none;align=center;verticalAlign=middle;whiteSpace=wrap;rounded=0;fontColor=#FF8000;" parent="1" vertex="1">
          <mxGeometry x="1200" y="790" width="40" height="20" as="geometry" />
        </mxCell>
        <mxCell id="LJ8jeTjM3cDZCOLipH15-60" style="edgeStyle=orthogonalEdgeStyle;rounded=0;orthogonalLoop=1;jettySize=auto;html=1;exitX=1;exitY=0.5;exitDx=0;exitDy=0;strokeWidth=2;strokeColor=#FF8000;" parent="1" source="LJ8jeTjM3cDZCOLipH15-51" edge="1">
          <mxGeometry relative="1" as="geometry">
            <mxPoint x="1380" y="470" as="targetPoint" />
            <Array as="points">
              <mxPoint x="1360" y="770" />
              <mxPoint x="1360" y="470" />
            </Array>
          </mxGeometry>
        </mxCell>
        <mxCell id="LJ8jeTjM3cDZCOLipH15-51" value="&lt;font style=&quot;font-size: 10px;&quot;&gt;HILO&lt;br&gt;&lt;/font&gt;" style="text;html=1;strokeColor=none;fillColor=none;align=center;verticalAlign=middle;whiteSpace=wrap;rounded=0;fontColor=#FF8000;" parent="1" vertex="1">
          <mxGeometry x="1290" y="760" width="30" height="20" as="geometry" />
        </mxCell>
        <mxCell id="LJ8jeTjM3cDZCOLipH15-52" value="" style="endArrow=classic;html=1;rounded=0;strokeColor=#006600;strokeWidth=2;entryX=1;entryY=0.5;entryDx=0;entryDy=0;exitX=0.5;exitY=1;exitDx=0;exitDy=0;" parent="1" source="LJ8jeTjM3cDZCOLipH15-50" target="LJ8jeTjM3cDZCOLipH15-53" edge="1">
          <mxGeometry width="50" height="50" relative="1" as="geometry">
            <mxPoint x="1220" y="870" as="sourcePoint" />
            <mxPoint x="340" y="970" as="targetPoint" />
            <Array as="points">
              <mxPoint x="1220" y="1000" />
            </Array>
          </mxGeometry>
        </mxCell>
        <mxCell id="LJ8jeTjM3cDZCOLipH15-53" value="&lt;font style=&quot;font-size: 10px;&quot;&gt;MULT_Busy&lt;/font&gt;" style="text;html=1;strokeColor=none;fillColor=none;align=center;verticalAlign=middle;whiteSpace=wrap;rounded=0;fontColor=#FF8000;" parent="1" vertex="1">
          <mxGeometry x="220" y="990" width="60" height="20" as="geometry" />
        </mxCell>
        <mxCell id="LJ8jeTjM3cDZCOLipH15-56" value="" style="endArrow=classic;dashed=1;html=1;rounded=0;strokeColor=#FF00FF;endFill=1;strokeWidth=2;" parent="1" edge="1">
          <mxGeometry width="50" height="50" relative="1" as="geometry">
            <mxPoint x="870" y="670" as="sourcePoint" />
            <mxPoint x="950" y="670" as="targetPoint" />
            <Array as="points">
              <mxPoint x="920" y="670" />
            </Array>
          </mxGeometry>
        </mxCell>
        <mxCell id="LJ8jeTjM3cDZCOLipH15-57" value="" style="endArrow=classic;dashed=1;html=1;rounded=0;strokeColor=#FF00FF;endFill=1;strokeWidth=2;" parent="1" edge="1">
          <mxGeometry width="50" height="50" relative="1" as="geometry">
            <mxPoint x="870" y="690" as="sourcePoint" />
            <mxPoint x="950" y="690" as="targetPoint" />
            <Array as="points">
              <mxPoint x="920" y="690" />
            </Array>
          </mxGeometry>
        </mxCell>
        <mxCell id="LJ8jeTjM3cDZCOLipH15-58" value="&lt;font style=&quot;font-size: 10px;&quot;&gt;MULTSel&lt;br&gt;&lt;/font&gt;" style="text;html=1;strokeColor=none;fillColor=none;align=center;verticalAlign=middle;whiteSpace=wrap;rounded=0;fontColor=#FF8000;" parent="1" vertex="1">
          <mxGeometry x="870" y="650" width="50" height="20" as="geometry" />
        </mxCell>
        <mxCell id="LJ8jeTjM3cDZCOLipH15-59" value="&lt;font style=&quot;font-size: 10px;&quot;&gt;ISMULTDIV&lt;br&gt;&lt;/font&gt;" style="text;html=1;strokeColor=none;fillColor=none;align=center;verticalAlign=middle;whiteSpace=wrap;rounded=0;fontColor=#FF8000;" parent="1" vertex="1">
          <mxGeometry x="860" y="670" width="70" height="20" as="geometry" />
        </mxCell>
        <mxCell id="LJ8jeTjM3cDZCOLipH15-62" value="&lt;font style=&quot;font-size: 10px;&quot;&gt;OP_E_Sel&lt;/font&gt;" style="text;html=1;strokeColor=none;fillColor=none;align=center;verticalAlign=middle;whiteSpace=wrap;rounded=0;fontColor=#FF8000;" parent="1" vertex="1">
          <mxGeometry x="800" y="170" width="50" height="20" as="geometry" />
        </mxCell>
        <mxCell id="LJ8jeTjM3cDZCOLipH15-64" style="edgeStyle=orthogonalEdgeStyle;rounded=0;orthogonalLoop=1;jettySize=auto;html=1;exitX=0.5;exitY=1;exitDx=0;exitDy=0;strokeWidth=2;strokeColor=#FF00FF;dashed=1;" parent="1" source="LJ8jeTjM3cDZCOLipH15-62" edge="1">
          <mxGeometry relative="1" as="geometry">
            <mxPoint x="950" y="210" as="targetPoint" />
            <mxPoint x="1320" y="780" as="sourcePoint" />
            <Array as="points">
              <mxPoint x="825" y="210" />
              <mxPoint x="900" y="210" />
            </Array>
          </mxGeometry>
        </mxCell>
        <mxCell id="LJ8jeTjM3cDZCOLipH15-65" style="edgeStyle=orthogonalEdgeStyle;rounded=0;orthogonalLoop=1;jettySize=auto;html=1;strokeWidth=2;strokeColor=#FF00FF;dashed=1;" parent="1" edge="1">
          <mxGeometry relative="1" as="geometry">
            <mxPoint x="1420" y="430" as="targetPoint" />
            <mxPoint x="950" y="210" as="sourcePoint" />
            <Array as="points">
              <mxPoint x="1420" y="210" />
            </Array>
          </mxGeometry>
        </mxCell>
        <mxCell id="LJ8jeTjM3cDZCOLipH15-67" value="&lt;font style=&quot;font-size: 10px;&quot;&gt;MULTSel&lt;br&gt;&lt;/font&gt;" style="text;html=1;strokeColor=none;fillColor=none;align=center;verticalAlign=middle;whiteSpace=wrap;rounded=0;fontColor=#FF8000;" parent="1" vertex="1">
          <mxGeometry x="700" y="70" width="50" height="20" as="geometry" />
        </mxCell>
        <mxCell id="LJ8jeTjM3cDZCOLipH15-69" value="" style="endArrow=classic;dashed=1;html=1;rounded=0;strokeColor=#FF00FF;endFill=1;exitX=0.5;exitY=0;exitDx=0;exitDy=0;strokeWidth=2;" parent="1" source="LJ8jeTjM3cDZCOLipH15-67" edge="1">
          <mxGeometry width="50" height="50" relative="1" as="geometry">
            <mxPoint x="723.07" y="60" as="sourcePoint" />
            <mxPoint x="725" y="30" as="targetPoint" />
          </mxGeometry>
        </mxCell>
        <mxCell id="LJ8jeTjM3cDZCOLipH15-73" value="&lt;font style=&quot;font-size: 10px;&quot;&gt;&lt;font color=&quot;#ff8000&quot;&gt;MULT_Start&lt;/font&gt;&lt;br&gt;&lt;/font&gt;" style="text;html=1;strokeColor=none;fillColor=none;align=center;verticalAlign=middle;whiteSpace=wrap;rounded=0;" parent="1" vertex="1">
          <mxGeometry x="180" y="970" width="60" height="20" as="geometry" />
        </mxCell>
        <mxCell id="LJ8jeTjM3cDZCOLipH15-74" value="" style="endArrow=classic;html=1;rounded=0;strokeWidth=2;strokeColor=#006600;entryX=0;entryY=0.5;entryDx=0;entryDy=0;exitX=0.5;exitY=1;exitDx=0;exitDy=0;" parent="1" source="LJ8jeTjM3cDZCOLipH15-81" target="LJ8jeTjM3cDZCOLipH15-73" edge="1">
          <mxGeometry width="50" height="50" relative="1" as="geometry">
            <mxPoint x="1280" y="880" as="sourcePoint" />
            <mxPoint x="70" y="980" as="targetPoint" />
            <Array as="points">
              <mxPoint x="1280" y="1020" />
              <mxPoint x="150" y="1020" />
              <mxPoint x="150" y="1000" />
              <mxPoint x="150" y="980" />
            </Array>
          </mxGeometry>
        </mxCell>
        <mxCell id="LJ8jeTjM3cDZCOLipH15-76" value="&lt;font style=&quot;font-size: 10px;&quot;&gt;ISMULTDIV&lt;br&gt;&lt;/font&gt;" style="text;html=1;strokeColor=none;fillColor=none;align=center;verticalAlign=middle;whiteSpace=wrap;rounded=0;fontColor=#FF8000;" parent="1" vertex="1">
          <mxGeometry x="750" y="70" width="60" height="20" as="geometry" />
        </mxCell>
        <mxCell id="LJ8jeTjM3cDZCOLipH15-77" value="" style="endArrow=classic;dashed=1;html=1;rounded=0;strokeColor=#FF00FF;endFill=1;exitX=0.5;exitY=0;exitDx=0;exitDy=0;strokeWidth=2;" parent="1" source="LJ8jeTjM3cDZCOLipH15-76" edge="1">
          <mxGeometry width="50" height="50" relative="1" as="geometry">
            <mxPoint x="826.09" y="55" as="sourcePoint" />
            <mxPoint x="780" y="30" as="targetPoint" />
          </mxGeometry>
        </mxCell>
        <mxCell id="LJ8jeTjM3cDZCOLipH15-78" value="&lt;font style=&quot;font-size: 10px;&quot;&gt;ISMULTDIV&lt;br&gt;&lt;/font&gt;" style="text;html=1;strokeColor=none;fillColor=none;align=center;verticalAlign=middle;whiteSpace=wrap;rounded=0;fontColor=#FF8000;" parent="1" vertex="1">
          <mxGeometry x="150" y="870" width="60" height="20" as="geometry" />
        </mxCell>
        <mxCell id="LJ8jeTjM3cDZCOLipH15-79" value="" style="endArrow=classic;dashed=1;html=1;rounded=0;entryX=0;entryY=0.5;entryDx=0;entryDy=0;strokeColor=#FF00FF;endFill=1;strokeWidth=2;" parent="1" target="LJ8jeTjM3cDZCOLipH15-78" edge="1">
          <mxGeometry width="50" height="50" relative="1" as="geometry">
            <mxPoint x="40" y="879.75" as="sourcePoint" />
            <mxPoint x="110" y="879.75" as="targetPoint" />
            <Array as="points" />
          </mxGeometry>
        </mxCell>
        <mxCell id="LJ8jeTjM3cDZCOLipH15-81" value="&lt;font style=&quot;font-size: 10px;&quot;&gt;Start&lt;br&gt;&lt;/font&gt;" style="text;html=1;strokeColor=none;fillColor=none;align=center;verticalAlign=middle;whiteSpace=wrap;rounded=0;fontColor=#FF8000;" parent="1" vertex="1">
          <mxGeometry x="1265" y="780" width="30" height="20" as="geometry" />
        </mxCell>
        <mxCell id="LJ8jeTjM3cDZCOLipH15-83" style="edgeStyle=orthogonalEdgeStyle;rounded=0;orthogonalLoop=1;jettySize=auto;html=1;exitX=1;exitY=0.5;exitDx=0;exitDy=0;strokeWidth=2;strokeColor=#FF3333;dashed=1;dashPattern=1 2;" parent="1" source="LJ8jeTjM3cDZCOLipH15-28" edge="1">
          <mxGeometry relative="1" as="geometry">
            <mxPoint x="1760" y="815" as="targetPoint" />
            <mxPoint x="1700" y="735" as="sourcePoint" />
            <Array as="points">
              <mxPoint x="1740" y="815" />
            </Array>
          </mxGeometry>
        </mxCell>
      </root>
    </mxGraphModel>
  </diagram>
</mxfile>
